<svg width="28" height="29" viewBox="0 0 28 29" fill="none" xmlns="http://www.w3.org/2000/svg">
<g clip-path="url(#clip0_2574_5251)">
<circle cx="14" cy="14.4102" r="14" fill="#34623A"/>
<path d="M15.1818 12.9749V13.0041H15.163C15.1657 12.9991 15.1692 12.9939 15.1728 12.9888C15.1759 12.9842 15.1791 12.9796 15.1818 12.9749Z" fill="white"/>
<path fill-rule="evenodd" clip-rule="evenodd" d="M20.9996 20.6324V15.516C20.9996 12.7762 19.6014 11.5011 17.7365 11.5011C16.2303 11.5011 15.5585 12.3683 15.1818 12.9749V11.7106H12.3468C12.3849 12.5475 12.3468 20.6322 12.3468 20.6322H15.1816V15.6494C15.1816 15.382 15.2008 15.1172 15.2755 14.9265C15.4809 14.3929 15.9462 13.8419 16.7294 13.8419C17.7557 13.8419 18.165 14.6604 18.165 15.8589V20.6324H20.9996ZM7.77734 8.95139C7.77734 8.07624 8.41174 7.41016 9.3814 7.41016C10.3513 7.41016 10.9472 8.07624 10.966 8.95139C10.966 9.80794 10.3513 10.4933 9.36258 10.4933H9.34419C8.39334 10.4933 7.77734 9.80794 7.77734 8.95139ZM10.7796 20.6324H7.94582V11.7106H10.7796V20.6324Z" fill="white"/>
</g>
<defs>
<clipPath id="clip0_2574_5251">
<rect width="28" height="28" fill="white" transform="translate(0 0.410156)"/>
</clipPath>
</defs>
</svg>
