<svg width="28" height="29" viewBox="0 0 28 29" fill="none" xmlns="http://www.w3.org/2000/svg">
<g clip-path="url(#clip0_2574_5254)">
<path d="M5.21383 0.552112C6.17247 0.400937 7.14741 0.400032 8.11601 0.421758L8.03273 0.498703C6.7654 1.3288 5.71442 2.46849 4.95493 3.77656C3.43233 6.3954 2.87742 9.49221 3.00324 12.494C3.12817 14.9381 3.71476 17.3958 4.95855 19.5204C5.16676 19.9006 5.51346 20.2364 5.51889 20.6981C5.55782 21.6884 5.06808 22.6217 4.40545 23.3296C4.4489 23.3749 4.49145 23.4202 4.5349 23.4654C5.15499 24.1425 5.81671 24.7789 6.44676 25.447C7.34203 26.459 8.36223 27.3552 9.23941 28.3854C7.78017 28.4071 6.30373 28.475 4.86169 28.2025C3.0467 27.8504 1.43538 26.5921 0.665928 24.9102C0.199732 23.9379 0.0603258 22.8508 0.0241164 21.7853C0.0232112 16.8663 0.0232112 11.9481 0.0241164 7.02997C0.0440316 5.38607 0.47945 3.66612 1.63634 2.44677C2.55244 1.4139 3.84964 0.742211 5.21383 0.552112Z" fill="#34623A"/>
<path d="M18.5053 9.58447C18.8936 9.58447 19.282 9.58447 19.6712 9.58447C19.6649 11.8593 19.6649 14.1351 19.6712 16.4099C19.291 16.3565 18.6583 16.6 18.5153 16.094C18.4917 13.9251 18.5134 11.7543 18.5053 9.58447Z" fill="white"/>
<path d="M22.5603 11.1717C23.8602 10.8811 25.2706 11.7347 25.6263 13.0147C26.0726 14.3463 25.2579 15.9296 23.9118 16.3351C22.7685 16.7379 21.3998 16.212 20.8068 15.1583C20.3416 14.3798 20.3135 13.3605 20.7362 12.5594C21.0947 11.8524 21.7872 11.3355 22.5603 11.1717ZM22.5386 12.3249C21.7456 12.6046 21.3183 13.5696 21.6279 14.349C21.8841 15.0859 22.7468 15.5367 23.4963 15.3104C24.3517 15.1058 24.8686 14.1037 24.5654 13.2827C24.3119 12.4698 23.3297 12.0009 22.5386 12.3249Z" fill="white"/>
<path d="M12.9298 12.1192C13.5553 11.3443 14.6507 10.9623 15.6157 11.2384C15.9343 11.319 16.2231 11.4783 16.5019 11.6476C16.4992 11.5625 16.4928 11.3932 16.4901 11.3081C16.8549 11.3063 17.2188 11.3072 17.5836 11.3054C17.5818 13.0072 17.58 14.7091 17.5845 16.4118C17.3166 16.4046 17.0441 16.4363 16.7807 16.382C16.596 16.3068 16.539 16.105 16.4657 15.9402C15.4591 16.7223 13.8776 16.5449 13.0412 15.5926C12.1495 14.6702 12.1033 13.0987 12.9298 12.1192ZM14.4035 12.3473C13.5653 12.6424 13.1589 13.7224 13.5834 14.5009C13.9455 15.2595 14.9648 15.5781 15.6935 15.1599C16.3697 14.805 16.682 13.9242 16.3914 13.22C16.1099 12.4541 15.1603 12.0251 14.4035 12.3473Z" fill="white"/>
<path d="M6.62421 9.66516C8.43106 9.66334 10.2361 9.65158 12.042 9.66425C12.0294 10.0182 12.0095 10.4038 11.7723 10.6899C10.5375 12.227 9.32906 13.784 8.09522 15.3211C9.40691 15.3292 10.7186 15.3238 12.0303 15.3238C12.0058 15.6307 12.1136 15.9882 11.9144 16.2544C11.7895 16.4264 11.5632 16.411 11.3758 16.4128C9.7346 16.4037 8.09341 16.4209 6.45312 16.4037C6.45765 16.057 6.46127 15.6732 6.70387 15.3971C7.92413 13.8664 9.15887 12.3465 10.3737 10.8121C9.12538 10.8139 7.87615 10.8039 6.62784 10.8175C6.61969 10.4337 6.6224 10.049 6.62421 9.66516Z" fill="white"/>
<path d="M8.03108 0.498636C8.23386 0.440701 8.44568 0.422596 8.65569 0.41626C12.2757 0.429838 15.8958 0.414449 19.5158 0.420786C20.4835 0.432554 21.4566 0.367377 22.4171 0.51493C23.7469 0.616317 25.0269 1.17937 26.0163 2.06922C27.2583 3.25598 27.9209 4.96507 27.9417 6.66962C27.9426 11.4683 27.9399 16.2705 27.9444 21.0674C27.9318 21.0954 27.9073 21.1534 27.8947 21.1823C26.6047 22.6253 24.8703 23.602 23.0571 24.2339C20.6138 25.0667 17.9968 25.3347 15.4287 25.1391C12.8605 24.9183 10.2724 24.2475 8.09445 22.8281C6.98101 23.3232 5.75261 23.5658 4.53326 23.4653C4.4898 23.4201 4.44726 23.3748 4.40381 23.3296C5.06644 22.6217 5.55617 21.6884 5.51725 20.698C5.51181 20.2364 5.16511 19.9005 4.95691 19.5203C3.71311 17.3957 3.12652 14.938 3.0016 12.4939C2.87577 9.49214 3.43068 6.39534 4.95328 3.77649C5.71278 2.46843 6.76375 1.32874 8.03108 0.498636ZM18.5028 9.58448C18.511 11.7543 18.4893 13.9251 18.5128 16.094C18.6558 16.6 19.2886 16.3565 19.6688 16.4099C19.6624 14.1351 19.6624 11.8593 19.6688 9.58448C19.2795 9.58448 18.8912 9.58448 18.5028 9.58448ZM6.62254 9.66504C6.62073 10.0489 6.61801 10.4336 6.62616 10.8174C7.87448 10.8038 9.1237 10.8138 10.372 10.812C9.15719 12.3463 7.92245 13.8662 6.7022 15.397C6.4596 15.6731 6.45597 16.0569 6.45145 16.4036C8.09173 16.4208 9.73292 16.4036 11.3741 16.4127C11.5615 16.4109 11.7878 16.4262 11.9127 16.2542C12.1119 15.9881 12.0042 15.6305 12.0286 15.3237C10.7169 15.3237 9.40523 15.3291 8.09354 15.321C9.32738 13.7839 10.5359 12.2269 11.7706 10.6898C12.0078 10.4037 12.0277 10.0181 12.0404 9.66414C10.2344 9.65147 8.42939 9.66323 6.62254 9.66504ZM22.5592 11.1714C21.7861 11.3352 21.0936 11.8521 20.7351 12.5591C20.3124 13.3602 20.3405 14.3795 20.8058 15.158C21.3987 16.2117 22.7674 16.7376 23.9107 16.3348C25.2568 15.9293 26.0715 14.346 25.6252 13.0144C25.2695 11.7344 23.8591 10.8808 22.5592 11.1714ZM12.9293 12.1191C12.1028 13.0986 12.149 14.6701 13.0407 15.5925C13.8771 16.5448 15.4585 16.7223 16.4652 15.9401C16.5385 16.1049 16.5955 16.3068 16.7802 16.3819C17.0436 16.4362 17.3161 16.4045 17.584 16.4118C17.5795 14.709 17.5813 13.0072 17.5831 11.3053C17.2183 11.3071 16.8544 11.3062 16.4896 11.308C16.4923 11.3931 16.4986 11.5624 16.5014 11.6475C16.2226 11.4782 15.9338 11.3189 15.6151 11.2383C14.6502 10.9622 13.5548 11.3443 12.9293 12.1191Z" fill="#67896C"/>
<path d="M14.4042 12.3472C15.161 12.0249 16.1106 12.454 16.3921 13.2198C16.6827 13.9241 16.3704 14.8049 15.6942 15.1597C14.9655 15.578 13.9462 15.2593 13.5841 14.5007C13.1595 13.7222 13.566 12.6423 14.4042 12.3472Z" fill="#67896C"/>
<path d="M22.5393 12.3247C23.3305 12.0007 24.3127 12.4696 24.5661 13.2825C24.8694 14.1035 24.3525 15.1056 23.4971 15.3102C22.7475 15.5365 21.8848 15.0857 21.6286 14.3488C21.3191 13.5694 21.7463 12.6044 22.5393 12.3247Z" fill="#67896C"/>
<path d="M27.8966 21.1823L27.9681 21.1045C28.0052 22.5194 27.8522 23.9958 27.1579 25.255C26.3504 26.7323 24.8857 27.8295 23.2382 28.1807C22.314 28.3717 21.3662 28.4143 20.4247 28.4025C17.5289 28.4034 14.633 28.4025 11.7372 28.4034C10.9044 28.3898 10.0698 28.4287 9.23966 28.3853C8.36249 27.3551 7.34229 26.459 6.44701 25.4469C5.81697 24.7788 5.15524 24.1425 4.53516 23.4653C5.75451 23.5658 6.98291 23.3232 8.09635 22.8281C10.2743 24.2475 12.8624 24.9182 15.4306 25.1391C17.9987 25.3347 20.6157 25.0667 23.059 24.2339C24.8722 23.602 26.6066 22.6253 27.8966 21.1823Z" fill="#34623A"/>
</g>
<defs>
<clipPath id="clip0_2574_5254">
<rect y="0.410156" width="28" height="28" rx="14" fill="white"/>
</clipPath>
</defs>
</svg>
