<svg width="28" height="29" viewBox="0 0 28 29" fill="none" xmlns="http://www.w3.org/2000/svg">
<g clip-path="url(#clip0_2572_11359)">
<circle cx="14" cy="14.4102" r="14" fill="#34623A"/>
<path d="M17.9826 9.52108C17.9826 9.7845 17.8721 9.8895 17.6142 9.8895C17.1187 9.8895 16.6232 9.8895 16.1295 9.90977C15.6358 9.93003 15.3669 10.1548 15.3669 10.6706C15.3558 11.2232 15.3669 11.7648 15.3669 12.3285H17.4871C17.7892 12.3285 17.8924 12.4316 17.8924 12.7356C17.8924 13.4724 17.8924 14.2129 17.8924 14.9571C17.8924 15.2574 17.7966 15.3513 17.4926 15.3532H15.3484V21.3474C15.3484 21.6679 15.249 21.7692 14.9321 21.7692H12.6258C12.3476 21.7692 12.239 21.6606 12.239 21.3824V15.3624H10.4079C10.1205 15.3624 10.0174 15.2574 10.0174 14.9682C10.0174 14.2227 10.0174 13.4779 10.0174 12.7337C10.0174 12.4463 10.1261 12.3377 10.4097 12.3377H12.239V10.7258C12.2172 10.0018 12.391 9.2853 12.7419 8.65161C13.1066 8.01186 13.6911 7.52619 14.3869 7.28477C14.8384 7.12048 15.3156 7.03814 15.7961 7.04161H17.6069C17.8666 7.04161 17.9753 7.15582 17.9753 7.41003C17.9845 8.11924 17.9845 8.82108 17.9826 9.52108Z" fill="white"/>
</g>
<defs>
<clipPath id="clip0_2572_11359">
<rect width="28" height="28" fill="white" transform="translate(0 0.410156)"/>
</clipPath>
</defs>
</svg>
