<svg width="28" height="29" viewBox="0 0 28 29" fill="none" xmlns="http://www.w3.org/2000/svg">
<g clip-path="url(#clip0_2572_11362)">
<circle cx="14" cy="14.4102" r="14" fill="#34623A"/>
<path d="M21.3764 9.44027C20.7988 8.70861 19.7325 8.41016 17.6961 8.41016H10.3038C8.22075 8.41016 7.13636 8.72786 6.56098 9.50683C6 10.2663 6 11.3854 6 12.9342V15.8862C6 18.8867 6.6656 20.4102 10.3038 20.4102H17.6961C19.4621 20.4102 20.4407 20.1468 21.0738 19.5011C21.723 18.839 22 17.7579 22 15.8862V12.9342C22 11.3008 21.9566 10.1752 21.3764 9.44027ZM16.2721 14.8177L12.9153 16.6874C12.8402 16.7292 12.7581 16.7499 12.6762 16.7499C12.5834 16.7499 12.4908 16.7233 12.4088 16.6704C12.2543 16.5707 12.1601 16.3923 12.1601 16.1999V12.4726C12.1601 12.2805 12.2541 12.1023 12.4082 12.0025C12.5624 11.9027 12.7541 11.8959 12.9141 11.9845L16.2709 13.8421C16.4417 13.9366 16.5489 14.1245 16.5492 14.3295C16.5494 14.5346 16.4426 14.7228 16.2721 14.8177Z" fill="white"/>
</g>
<defs>
<clipPath id="clip0_2572_11362">
<rect width="28" height="28" fill="white" transform="translate(0 0.410156)"/>
</clipPath>
</defs>
</svg>
