<svg width="28" height="29" viewBox="0 0 28 29" fill="none" xmlns="http://www.w3.org/2000/svg">
<g clip-path="url(#clip0_2572_11365)">
<circle cx="14" cy="14.4102" r="14" fill="#34623A"/>
<path d="M15.1822 12.9749V13.0041H15.1634C15.1661 12.9991 15.1697 12.9939 15.1732 12.9888C15.1764 12.9842 15.1796 12.9796 15.1822 12.9749Z" fill="white"/>
<path fill-rule="evenodd" clip-rule="evenodd" d="M21 20.6324V15.516C21 12.7762 19.6018 11.5011 17.7369 11.5011C16.2308 11.5011 15.5589 12.3683 15.1822 12.9749V11.7106H12.3472C12.3853 12.5475 12.3472 20.6322 12.3472 20.6322H15.182V15.6494C15.182 15.382 15.2013 15.1172 15.2759 14.9265C15.4814 14.3929 15.9466 13.8419 16.7299 13.8419C17.7562 13.8419 18.1654 14.6604 18.1654 15.8589V20.6324H21ZM7.77777 8.95139C7.77777 8.07624 8.41216 7.41016 9.38182 7.41016C10.3517 7.41016 10.9476 8.07624 10.9664 8.95139C10.9664 9.80794 10.3517 10.4933 9.36301 10.4933H9.34462C8.39377 10.4933 7.77777 9.80794 7.77777 8.95139ZM10.78 20.6324H7.94625V11.7106H10.78V20.6324Z" fill="white"/>
</g>
<defs>
<clipPath id="clip0_2572_11365">
<rect width="28" height="28" fill="white" transform="translate(0 0.410156)"/>
</clipPath>
</defs>
</svg>
