<svg width="28" height="29" viewBox="0 0 28 29" fill="none" xmlns="http://www.w3.org/2000/svg">
<g clip-path="url(#clip0_2572_11368)">
<path d="M5.2156 0.552112C6.17424 0.400937 7.14918 0.400032 8.11778 0.421758L8.0345 0.498703C6.76717 1.3288 5.71619 2.46849 4.9567 3.77656C3.4341 6.3954 2.87919 9.49221 3.00501 12.494C3.12994 14.9381 3.71653 17.3958 4.96032 19.5204C5.16853 19.9006 5.51523 20.2364 5.52066 20.6981C5.55959 21.6884 5.06985 22.6217 4.40722 23.3296C4.45067 23.3749 4.49322 23.4202 4.53667 23.4654C5.15676 24.1425 5.81848 24.7789 6.44853 25.447C7.3438 26.459 8.364 27.3552 9.24118 28.3854C7.78194 28.4071 6.3055 28.475 4.86346 28.2025C3.04847 27.8504 1.43715 26.5921 0.667698 24.9102C0.201502 23.9379 0.0620958 22.8508 0.0258864 21.7853C0.0249812 16.8663 0.0249812 11.9481 0.0258864 7.02997C0.0458016 5.38607 0.48122 3.66612 1.63811 2.44677C2.55421 1.4139 3.85141 0.742211 5.2156 0.552112Z" fill="#34623A"/>
<path d="M18.5063 9.58447C18.8946 9.58447 19.2829 9.58447 19.6722 9.58447C19.6659 11.8593 19.6659 14.1351 19.6722 16.4099C19.292 16.3565 18.6592 16.6 18.5162 16.094C18.4927 13.9251 18.5144 11.7543 18.5063 9.58447Z" fill="white"/>
<path d="M22.5627 11.1717C23.8626 10.8811 25.2729 11.7347 25.6287 13.0147C26.075 14.3463 25.2603 15.9296 23.9142 16.3351C22.7709 16.7379 21.4022 16.212 20.8092 15.1583C20.3439 14.3798 20.3159 13.3605 20.7386 12.5594C21.0971 11.8524 21.7896 11.3355 22.5627 11.1717ZM22.5409 12.3249C21.748 12.6046 21.3207 13.5696 21.6303 14.349C21.8865 15.0859 22.7491 15.5367 23.4987 15.3104C24.3541 15.1058 24.871 14.1037 24.5678 13.2827C24.3143 12.4698 23.3321 12.0009 22.5409 12.3249Z" fill="white"/>
<path d="M12.9327 12.1192C13.5582 11.3443 14.6535 10.9623 15.6185 11.2384C15.9372 11.319 16.2259 11.4783 16.5048 11.6476C16.502 11.5625 16.4957 11.3932 16.493 11.3081C16.8578 11.3063 17.2217 11.3072 17.5865 11.3054C17.5847 13.0072 17.5829 14.7091 17.5874 16.4118C17.3195 16.4046 17.047 16.4363 16.7836 16.382C16.5989 16.3068 16.5419 16.105 16.4685 15.9402C15.4619 16.7223 13.8805 16.5449 13.044 15.5926C12.1524 14.6702 12.1062 13.0987 12.9327 12.1192ZM14.4064 12.3473C13.5682 12.6424 13.1617 13.7224 13.5863 14.5009C13.9484 15.2595 14.9677 15.5781 15.6964 15.1599C16.3726 14.805 16.6849 13.9242 16.3943 13.22C16.1128 12.4541 15.1632 12.0251 14.4064 12.3473Z" fill="white"/>
<path d="M6.62595 9.66491C8.4328 9.6631 10.2378 9.65133 12.0438 9.66401C12.0311 10.018 12.0112 10.4036 11.774 10.6896C10.5393 12.2267 9.3308 13.7837 8.09696 15.3208C9.40865 15.329 10.7203 15.3235 12.032 15.3235C12.0076 15.6304 12.1153 15.988 11.9161 16.2541C11.7912 16.4261 11.5649 16.4107 11.3775 16.4125C9.73634 16.4035 8.09515 16.4207 6.45486 16.4035C6.45939 16.0568 6.46301 15.673 6.70561 15.3969C7.92587 13.8661 9.16061 12.3462 10.3754 10.8118C9.12712 10.8137 7.87789 10.8037 6.62957 10.8173C6.62143 10.4335 6.62414 10.0487 6.62595 9.66491Z" fill="white"/>
<path d="M8.0345 0.49888C8.23727 0.440945 8.4491 0.422841 8.65911 0.416504C12.2791 0.430082 15.8992 0.414693 19.5192 0.42103C20.4869 0.432798 21.46 0.367621 22.4205 0.515174C23.7503 0.616561 25.0303 1.17962 26.0197 2.06946C27.2617 3.25623 27.9243 4.96531 27.9451 6.66987C27.946 11.4685 27.9433 16.2708 27.9479 21.0676C27.9352 21.0957 27.9107 21.1536 27.8981 21.1826C26.6081 22.6255 24.8737 23.6023 23.0605 24.2341C20.6173 25.067 18.0002 25.3349 15.4321 25.1394C12.8639 24.9185 10.2759 24.2477 8.09787 22.8283C6.98443 23.3235 5.75603 23.5661 4.53667 23.4656C4.49322 23.4203 4.45068 23.3751 4.40723 23.3298C5.06986 22.6219 5.55959 21.6886 5.52066 20.6983C5.51523 20.2366 5.16853 19.9008 4.96032 19.5206C3.71653 17.396 3.12994 14.9383 3.00502 12.4941C2.87919 9.49239 3.4341 6.39558 4.9567 3.77674C5.71619 2.46867 6.76717 1.32898 8.0345 0.49888ZM18.5063 9.58472C18.5144 11.7546 18.4927 13.9253 18.5162 16.0943C18.6592 16.6003 19.292 16.3568 19.6722 16.4102C19.6659 14.1353 19.6659 11.8596 19.6722 9.58472C19.2829 9.58472 18.8946 9.58472 18.5063 9.58472ZM6.62596 9.66529C6.62415 10.0491 6.62143 10.4338 6.62958 10.8177C7.8779 10.8041 9.12712 10.814 10.3754 10.8122C9.16061 12.3466 7.92587 13.8665 6.70562 15.3972C6.46301 15.6733 6.45939 16.0572 6.45487 16.4039C8.09515 16.4211 9.73634 16.4039 11.3775 16.4129C11.5649 16.4111 11.7912 16.4265 11.9161 16.2545C12.1153 15.9884 12.0076 15.6308 12.032 15.3239C10.7203 15.3239 9.40865 15.3293 8.09696 15.3212C9.3308 13.7841 10.5393 12.2271 11.774 10.69C12.0112 10.404 12.0311 10.0183 12.0438 9.66438C10.2378 9.65171 8.4328 9.66348 6.62596 9.66529ZM22.5626 11.1716C21.7895 11.3354 21.097 11.8523 20.7386 12.5593C20.3158 13.3605 20.3439 14.3798 20.8092 15.1583C21.4021 16.2119 22.7708 16.7379 23.9141 16.3351C25.2602 15.9295 26.0749 14.3463 25.6286 13.0147C25.2729 11.7347 23.8625 10.881 22.5626 11.1716ZM12.9327 12.1194C12.1062 13.0988 12.1524 14.6703 13.0441 15.5928C13.8805 16.5451 15.462 16.7225 16.4686 15.9404C16.5419 16.1051 16.5989 16.307 16.7836 16.3821C17.047 16.4364 17.3195 16.4048 17.5874 16.412C17.5829 14.7093 17.5847 13.0074 17.5865 11.3056C17.2217 11.3074 16.8578 11.3065 16.493 11.3083C16.4957 11.3934 16.5021 11.5627 16.5048 11.6478C16.226 11.4785 15.9372 11.3192 15.6186 11.2386C14.6536 10.9625 13.5582 11.3445 12.9327 12.1194Z" fill="#67896C"/>
<path d="M14.4064 12.3474C15.1632 12.0252 16.1128 12.4542 16.3943 13.2201C16.6849 13.9243 16.3726 14.8051 15.6964 15.16C14.9677 15.5782 13.9484 15.2596 13.5863 14.501C13.1618 13.7225 13.5682 12.6425 14.4064 12.3474Z" fill="#67896C"/>
<path d="M22.5409 12.3247C23.3321 12.0007 24.3142 12.4696 24.5677 13.2825C24.871 14.1035 24.3541 15.1056 23.4986 15.3102C22.7491 15.5365 21.8864 15.0857 21.6302 14.3488C21.3206 13.5694 21.7479 12.6044 22.5409 12.3247Z" fill="#67896C"/>
<path d="M27.8981 21.1823L27.9696 21.1045C28.0067 22.5194 27.8537 23.9958 27.1594 25.255C26.3519 26.7323 24.8873 27.8295 23.2397 28.1807C22.3155 28.3717 21.3677 28.4143 20.4263 28.4025C17.5304 28.4034 14.6346 28.4025 11.7387 28.4034C10.9059 28.3898 10.0713 28.4287 9.24117 28.3853C8.364 27.3551 7.3438 26.459 6.44852 25.4469C5.81848 24.7788 5.15675 24.1425 4.53667 23.4653C5.75602 23.5658 6.98442 23.3232 8.09786 22.8281C10.2759 24.2475 12.8639 24.9182 15.4321 25.1391C18.0002 25.3347 20.6173 25.0667 23.0605 24.2339C24.8737 23.602 26.6081 22.6253 27.8981 21.1823Z" fill="#34623A"/>
</g>
<defs>
<clipPath id="clip0_2572_11368">
<rect y="0.410156" width="28" height="28" rx="14" fill="white"/>
</clipPath>
</defs>
</svg>
