<svg width="64" height="64" viewBox="0 0 64 64" fill="none" xmlns="http://www.w3.org/2000/svg">
<g clip-path="url(#clip0_225_62)">
<circle cx="32" cy="32" r="32" fill="#28A745"/>
<circle cx="32" cy="32" r="28" fill="black"/>
<path fill-rule="evenodd" clip-rule="evenodd" d="M12.3553 21.8543C12.6059 21.9703 12.7149 22.2675 12.5989 22.5181C10.072 27.975 9.95684 34.2746 12.2537 39.8086C12.3595 40.0636 12.2386 40.3562 11.9835 40.462C11.7285 40.5679 11.4359 40.4469 11.3301 40.1919C8.92636 34.4005 9.04671 27.8094 11.6915 22.0979C11.8075 21.8473 12.1047 21.7382 12.3553 21.8543Z" fill="white"/>
<path fill-rule="evenodd" clip-rule="evenodd" d="M50.7902 21.8543C50.5396 21.9703 50.4306 22.2675 50.5466 22.5181C53.0735 27.975 53.1887 34.2746 50.8918 39.8086C50.786 40.0636 50.9069 40.3562 51.162 40.462C51.417 40.5679 51.7096 40.4469 51.8154 40.1919C54.2191 34.4005 54.0988 27.8094 51.454 22.0979C51.338 21.8473 51.0408 21.7382 50.7902 21.8543Z" fill="white"/>
<path d="M12.8799 17.4396C12.5622 17.1451 12.5622 16.8573 12.8799 16.516L13.6743 15.6593C14.7137 14.5215 15.9517 14.5483 17.2095 15.7463C18.4673 16.9443 18.5931 18.1758 17.5405 19.3136L16.7461 20.1703C16.6996 20.2471 16.6356 20.3115 16.5594 20.3581C16.4831 20.4047 16.3969 20.4322 16.3081 20.4381C16.2192 20.444 16.1302 20.4282 16.0486 20.3921C15.967 20.3559 15.8951 20.3005 15.8391 20.2305L12.8799 17.4396ZM16.9381 18.8585C17.6464 18.0955 17.5339 17.299 16.5938 16.4156C15.6538 15.5321 14.8527 15.4652 14.151 16.2349L13.5618 16.8707L16.3489 19.501L16.9381 18.8585Z" fill="white"/>
<path d="M20.2154 11.2689C20.1677 11.1907 20.1395 11.1019 20.1331 11.0102C20.1268 10.9185 20.1425 10.8267 20.179 10.7425C20.2154 10.6583 20.2715 10.5842 20.3424 10.5267C20.4133 10.4692 20.4969 10.4299 20.5861 10.4122L22.6847 9.45516C22.7292 9.42329 22.78 9.40172 22.8336 9.39198C22.8873 9.38224 22.9424 9.38456 22.995 9.3988C23.0476 9.41303 23.0965 9.43882 23.1382 9.47433C23.1798 9.50984 23.2132 9.55419 23.236 9.60424C23.2588 9.65428 23.2704 9.70879 23.2699 9.76387C23.2695 9.81895 23.257 9.87326 23.2335 9.92293C23.2099 9.9726 23.1758 10.0164 23.1336 10.0512C23.0914 10.0861 23.0421 10.1111 22.9893 10.1244L21.0827 10.9945L21.7049 12.3799L23.499 11.5634C23.5425 11.5441 23.5893 11.5336 23.6368 11.5325C23.6842 11.5315 23.7315 11.5399 23.7757 11.5573C23.82 11.5747 23.8604 11.6008 23.8947 11.634C23.929 11.6672 23.9565 11.7069 23.9757 11.7508C23.9948 11.7948 24.0052 11.8421 24.0062 11.8901C24.0072 11.9381 23.9989 11.9858 23.9817 12.0306C23.9645 12.0753 23.9387 12.1162 23.9059 12.1509C23.873 12.1856 23.8338 12.2134 23.7903 12.2327L21.9698 13.0492L22.6318 14.5216L24.5582 13.6516C24.603 13.6245 24.6531 13.6074 24.705 13.6016C24.7569 13.5957 24.8094 13.6013 24.8591 13.6178C24.9087 13.6343 24.9542 13.6614 24.9925 13.6972C25.0308 13.7331 25.0611 13.7769 25.0812 13.8256C25.1035 13.873 25.1155 13.9248 25.1164 13.9773C25.1172 14.0298 25.107 14.0819 25.0863 14.1301C25.0656 14.1783 25.0349 14.2214 24.9964 14.2566C24.9578 14.2918 24.9123 14.3183 24.8628 14.3342L22.7708 15.2913C22.3537 15.4787 22.1088 15.385 21.9102 14.9901L20.2154 11.2689Z" fill="white"/>
<path d="M31.622 13.2233L29.4374 13.3303C28.9872 13.3303 28.7753 13.1697 28.7422 12.7347L28.5304 8.48472C28.5178 8.42475 28.5184 8.36274 28.5319 8.30299C28.5455 8.24324 28.5718 8.18721 28.609 8.13878C28.6461 8.09036 28.6933 8.05072 28.7472 8.02262C28.8011 7.99451 28.8604 7.97863 28.921 7.97607C28.983 7.97011 29.0456 7.97786 29.1044 7.99877C29.1632 8.01968 29.2168 8.05326 29.2615 8.09718C29.3062 8.1411 29.341 8.19431 29.3633 8.25314C29.3857 8.31196 29.3951 8.37499 29.391 8.43787L29.6095 12.5607L31.5955 12.4536C31.649 12.4441 31.7039 12.4463 31.7566 12.4599C31.8092 12.4735 31.8584 12.4982 31.9009 12.5324C31.9433 12.5667 31.9782 12.6096 32.003 12.6585C32.0278 12.7073 32.0422 12.7609 32.045 12.8158C32.0478 12.8706 32.0391 12.9254 32.0194 12.9766C31.9997 13.0278 31.9695 13.0742 31.9308 13.1127C31.8921 13.1512 31.8457 13.181 31.7948 13.2001C31.7438 13.2191 31.6894 13.227 31.6352 13.2233H31.622Z" fill="white"/>
<path d="M36.0572 10.7135C36.5471 9.28788 37.6262 8.7056 38.9171 9.13394C40.2081 9.56228 40.6847 10.7335 40.2014 12.1591L39.9631 12.8284C39.4799 14.2406 38.414 14.8362 37.1231 14.3744C35.8322 13.9126 35.3423 12.7949 35.7991 11.3894L36.0572 10.7135ZM36.6531 11.704C36.322 12.6678 36.5935 13.4107 37.368 13.6784C38.1426 13.9461 38.8046 13.5311 39.1224 12.5674L39.3607 11.8646C39.6917 10.8808 39.4269 10.1178 38.659 9.85677C37.891 9.59575 37.2158 10.0241 36.8781 11.0079L36.6531 11.704Z" fill="white"/>
<path d="M43.2995 17.346L44.4912 16.0074L44.9744 13.2701C44.9845 13.125 45.035 12.9858 45.1201 12.8685C45.1567 12.8281 45.2012 12.7959 45.2507 12.7738C45.3003 12.7518 45.3539 12.7404 45.4081 12.7404C45.4622 12.7404 45.5158 12.7518 45.5654 12.7738C45.6149 12.7959 45.6594 12.8281 45.696 12.8685C45.8417 13.0024 45.8681 13.1496 45.8019 13.4441L45.3253 15.7063L47.4967 14.9567C47.7681 14.863 47.927 14.8697 48.0727 14.9968C48.1138 15.0297 48.1478 15.0709 48.1723 15.1177C48.1969 15.1646 48.2115 15.2162 48.2152 15.2691C48.219 15.322 48.2117 15.3751 48.194 15.425C48.1763 15.4749 48.1485 15.5206 48.1124 15.559C48.0023 15.6652 47.8645 15.7372 47.7152 15.7665L45.1068 16.5964L43.9351 17.935C43.9001 17.9891 43.8534 18.0345 43.7986 18.0677C43.7437 18.101 43.6822 18.1213 43.6185 18.1271C43.5548 18.1329 43.4906 18.1241 43.4308 18.1012C43.371 18.0784 43.3171 18.0421 43.2731 17.9952C43.2294 17.9526 43.1952 17.901 43.1727 17.8441C43.1501 17.7871 43.1398 17.7259 43.1423 17.6646C43.1448 17.6033 43.1601 17.5432 43.1872 17.4883C43.2143 17.4334 43.2526 17.3849 43.2995 17.346Z" fill="white"/>
<path d="M46.3462 43.3279L49.5834 45.8778L50.3249 44.9208C50.3553 44.8812 50.3931 44.8481 50.4362 44.8233C50.4793 44.7986 50.5268 44.7826 50.576 44.7764C50.6252 44.7702 50.6751 44.7738 50.7228 44.7871C50.7706 44.8004 50.8154 44.8231 50.8545 44.8538C50.8936 44.8846 50.9264 44.9229 50.9509 44.9664C50.9754 45.01 50.9911 45.058 50.9973 45.1077C51.0034 45.1574 50.9998 45.2079 50.9867 45.2562C50.9735 45.3045 50.9511 45.3497 50.9207 45.3893L48.9347 48.0129C48.9064 48.0577 48.869 48.096 48.825 48.1251C48.781 48.1542 48.7313 48.1735 48.6793 48.1818C48.6274 48.19 48.5743 48.187 48.5235 48.1728C48.4728 48.1587 48.4257 48.1338 48.3852 48.0999C48.3428 48.0688 48.3076 48.0289 48.2819 47.9828C48.2562 47.9367 48.2406 47.8856 48.2362 47.8329C48.2318 47.7801 48.2387 47.7271 48.2564 47.6773C48.2741 47.6275 48.3022 47.5822 48.3388 47.5444L49.0538 46.5806L45.8099 44.0306C45.7536 43.9987 45.7052 43.9541 45.6685 43.9004C45.6318 43.8467 45.6078 43.7851 45.5982 43.7206C45.5886 43.656 45.5938 43.59 45.6132 43.5278C45.6327 43.4655 45.6661 43.4086 45.7106 43.3613C45.7473 43.3126 45.7941 43.2726 45.8476 43.244C45.9012 43.2154 45.9603 43.1989 46.0207 43.1957C46.0812 43.1926 46.1417 43.2027 46.1979 43.2255C46.2541 43.2484 46.3047 43.2833 46.3462 43.3279Z" fill="white"/>
<path d="M40.1504 48.8023L41.1632 50.4287L43.2155 49.1303L42.2026 47.4972C42.1411 47.3978 42.1213 47.2778 42.1473 47.1636C42.1734 47.0494 42.2433 46.9503 42.3416 46.8882C42.4399 46.826 42.5587 46.806 42.6716 46.8323C42.7846 46.8587 42.8826 46.9293 42.9441 47.0287L45.2876 50.8102C45.3314 50.8588 45.3635 50.9169 45.3815 50.9801C45.3995 51.0433 45.4029 51.1098 45.3914 51.1746C45.3799 51.2393 45.3538 51.3004 45.3151 51.3533C45.2764 51.4062 45.2262 51.4494 45.1684 51.4795C45.1175 51.5153 45.0594 51.5393 44.9982 51.5495C44.937 51.5598 44.8743 51.5562 44.8147 51.5389C44.7551 51.5215 44.7001 51.491 44.6536 51.4495C44.6071 51.4079 44.5704 51.3565 44.5461 51.2988L43.6061 49.7929L41.5538 51.1314L42.4939 52.6373C42.5364 52.6865 42.5675 52.7447 42.5848 52.8076C42.6021 52.8706 42.6051 52.9367 42.5936 53.001C42.5822 53.0653 42.5566 53.1261 42.5187 53.179C42.4808 53.2319 42.4316 53.2756 42.3747 53.3066C42.3233 53.3425 42.2647 53.3665 42.203 53.3768C42.1414 53.3871 42.0782 53.3835 42.0181 53.3662C41.958 53.3489 41.9024 53.3184 41.8553 53.2769C41.8083 53.2353 41.7709 53.1838 41.7458 53.1259L39.4023 49.3578C39.3294 49.2575 39.2989 49.1321 39.3176 49.0091C39.3362 48.8861 39.4024 48.7756 39.5016 48.7019C39.6008 48.6283 39.7249 48.5975 39.8465 48.6163C39.9682 48.6351 40.0775 48.702 40.1504 48.8023Z" fill="white"/>
<path d="M37.2956 54.565C37.3817 54.9934 37.2162 55.2343 36.766 55.3213L34.5152 55.7831C34.4673 55.7928 34.4181 55.7929 34.3703 55.7833C34.3224 55.7737 34.2769 55.7547 34.2364 55.7274C34.1958 55.7 34.1609 55.6649 34.1338 55.6239C34.1067 55.583 34.0878 55.537 34.0782 55.4887C34.0687 55.4403 34.0686 55.3905 34.0781 55.3422C34.0875 55.2938 34.1063 55.2478 34.1334 55.2068C34.1604 55.1658 34.1952 55.1306 34.2357 55.1031C34.2762 55.0757 34.3217 55.0566 34.3695 55.0469L36.4151 54.632L36.1172 53.1328L34.1841 53.5276C34.1353 53.5571 34.0801 53.5742 34.0234 53.5778C33.9666 53.5813 33.9098 53.5711 33.8577 53.548C33.8056 53.5249 33.7597 53.4896 33.7239 53.4449C33.688 53.4003 33.6632 53.3476 33.6515 53.2913C33.6398 53.2351 33.6416 53.1768 33.6566 53.1213C33.6717 53.0658 33.6997 53.0148 33.7381 52.9725C33.7766 52.9301 33.8246 52.8977 33.878 52.8779C33.9314 52.858 33.9887 52.8513 34.0451 52.8584L35.9716 52.4635L35.6604 50.8907L33.6214 51.3056C33.5249 51.3251 33.4246 51.3051 33.3426 51.2499C33.2607 51.1946 33.2038 51.1088 33.1845 51.0111C33.1652 50.9135 33.185 50.8121 33.2397 50.7293C33.2943 50.6464 33.3792 50.5889 33.4758 50.5694L35.72 50.1143C36.1636 50.0206 36.382 50.1745 36.4946 50.6029L37.2956 54.565Z" fill="white"/>
<path d="M30.2647 51.2188L29.4901 55.5424C29.4877 55.6154 29.4696 55.6871 29.437 55.7523C29.4044 55.8175 29.3581 55.8747 29.3014 55.9199C29.2447 55.9652 29.1788 55.9974 29.1085 56.0142C29.0382 56.0311 28.9651 56.0323 28.8943 56.0176C28.6229 55.9641 28.4971 55.8168 28.411 55.3483L27.6299 51.7141H27.5968L25.6107 54.8531C25.3724 55.2412 25.2069 55.3349 24.9487 55.2814C24.6905 55.2279 24.4919 54.9869 24.5581 54.6121L25.3261 50.2885C25.379 49.9874 25.5445 49.8468 25.8093 49.8937C26.0741 49.9405 26.1602 50.1212 26.1072 50.4358L25.5313 53.6751H25.5644L27.2062 51.1051C27.4114 50.7838 27.5637 50.7035 27.7821 50.7436C28.0006 50.7838 28.1264 50.9177 28.1992 51.2858L28.8612 54.3109L29.4372 51.0716C29.4967 50.7637 29.6622 50.6299 29.9138 50.6767C30.1654 50.7236 30.3176 50.911 30.2647 51.2188Z" fill="white"/>
<path d="M20.2289 52.6574C20.193 52.7402 20.1378 52.8131 20.0681 52.8698C19.9985 52.9265 19.9163 52.9654 19.8286 52.9831C19.7408 53.0008 19.6502 52.9969 19.5643 52.9717C19.4784 52.9464 19.3998 52.9006 19.3351 52.8381L17.3822 51.6133C17.3353 51.5905 17.2937 51.5578 17.2604 51.5174C17.227 51.477 17.2026 51.4299 17.1888 51.3791C17.175 51.3284 17.1721 51.2752 17.1804 51.2233C17.1886 51.1713 17.2078 51.1217 17.2366 51.0779C17.2623 51.0324 17.2976 50.993 17.34 50.9627C17.3823 50.9323 17.4306 50.9117 17.4817 50.9021C17.5327 50.8926 17.5852 50.8944 17.6354 50.9074C17.6857 50.9204 17.7326 50.9443 17.7728 50.9775L19.547 52.0952L20.3414 50.8102L18.6731 49.7594C18.628 49.7383 18.5881 49.7073 18.5562 49.6688C18.5243 49.6303 18.5012 49.5851 18.4886 49.5366C18.4759 49.488 18.474 49.4372 18.483 49.3877C18.4921 49.3383 18.5118 49.2916 18.5407 49.2507C18.5638 49.2069 18.5963 49.1689 18.6357 49.1393C18.6751 49.1098 18.7206 49.0894 18.7687 49.0798C18.8169 49.0702 18.8666 49.0716 18.9141 49.0838C18.9617 49.096 19.006 49.1187 19.0439 49.1503L20.7187 50.2011L21.5595 48.8625L19.7919 47.7047C19.745 47.6819 19.7035 47.6492 19.6701 47.6088C19.6367 47.5684 19.6123 47.5212 19.5985 47.4705C19.5847 47.4197 19.5819 47.3666 19.5901 47.3146C19.5983 47.2627 19.6175 47.2131 19.6463 47.1693C19.6721 47.1237 19.7074 47.0844 19.7497 47.0541C19.792 47.0237 19.8404 47.0031 19.8914 46.9935C19.9424 46.9839 19.9949 46.9857 20.0452 46.9988C20.0954 47.0118 20.1423 47.0357 20.1825 47.0689L22.1288 48.2937C22.5194 48.5413 22.5989 48.8224 22.3672 49.1905L20.2289 52.6574Z" fill="white"/>
<path d="M16.6146 45.8644C16.5594 45.7869 16.5245 45.6966 16.5129 45.6019C16.5013 45.5071 16.5135 45.411 16.5484 45.3222C16.6059 45.0956 16.6076 44.8581 16.5534 44.6306C16.4992 44.403 16.3906 44.1924 16.2372 44.0171C15.8202 43.4884 15.3501 43.3479 14.9728 43.6624C14.5954 43.977 14.6351 44.2782 14.8867 44.827L15.2442 45.6234C15.6282 46.46 15.5355 47.1092 14.9662 47.5777C14.2247 48.1801 13.2714 47.9793 12.5564 47.0892C12.1962 46.6866 11.9917 46.1662 11.9805 45.6234C11.9804 45.479 12.0097 45.3362 12.0667 45.2037C12.1236 45.0713 12.207 44.9522 12.3115 44.8537C12.3473 44.8209 12.3896 44.7961 12.4355 44.7809C12.4815 44.7657 12.5301 44.7605 12.5782 44.7655C12.6263 44.7706 12.6728 44.7858 12.7146 44.8102C12.7565 44.8347 12.7928 44.8677 12.8212 44.9073C12.8728 44.9669 12.9064 45.0401 12.9181 45.1184C12.9299 45.1966 12.9192 45.2767 12.8874 45.349C12.8018 45.5572 12.7756 45.7854 12.8119 46.0079C12.8481 46.2303 12.9454 46.438 13.0927 46.6073C13.4766 47.0825 13.9599 47.2096 14.324 46.9151C14.6881 46.6207 14.6285 46.3262 14.4299 45.8577L14.0658 45.0679C13.6487 44.1577 13.7282 43.5219 14.324 43.0601C15.0919 42.4376 16.0585 42.6518 16.8198 43.6089C17.199 44.0389 17.4128 44.5923 17.4222 45.1683C17.4257 45.3092 17.4011 45.4493 17.35 45.5804C17.2988 45.7115 17.222 45.8308 17.1243 45.9313C17.0479 45.9906 16.9513 46.0168 16.8558 46.0043C16.7602 45.9918 16.6735 45.9414 16.6146 45.8644Z" fill="white"/>
<path d="M41.7955 31.5C41.7955 30.373 41.5619 29.2698 41.0948 28.1905C40.6443 27.1746 40.0019 26.2698 39.1677 25.4762C38.3668 24.7143 37.4241 24.1111 36.3396 23.6667C35.255 23.2222 34.0954 23 32.8608 23H24.5767C24.1429 23 23.7675 23.1429 23.4505 23.4286C23.1502 23.7302 23 24.0952 23 24.5238C23 24.9365 23.1502 25.2857 23.4505 25.5714C23.7675 25.873 24.1429 26.0238 24.5767 26.0238H32.8608C33.6616 26.0238 34.4041 26.1667 35.0882 26.4524C35.789 26.7381 36.398 27.127 36.9152 27.619C37.4491 28.127 37.8662 28.7063 38.1666 29.3571C38.4669 30.0238 38.6171 30.7381 38.6171 31.5C38.6171 32.2619 38.4669 32.9762 38.1666 33.6429C37.8662 34.2937 37.4491 34.873 36.9152 35.381C36.398 35.873 35.789 36.2619 35.0882 36.5476C34.4041 36.8333 33.6616 36.9762 32.8608 36.9762H24.5767C24.1429 36.9762 23.7675 37.127 23.4505 37.4286C23.1502 37.7143 23 38.0635 23 38.4762C23 38.9048 23.1502 39.2698 23.4505 39.5714C23.7675 39.8571 24.1429 40 24.5767 40H32.8608C34.0954 40 35.255 39.7778 36.3396 39.3333C37.4241 38.8889 38.3668 38.2857 39.1677 37.5238C40.0019 36.7302 40.6443 35.8254 41.0948 34.8095C41.5619 33.7302 41.7955 32.627 41.7955 31.5Z" fill="white"/>
<rect x="26" y="28" width="7" height="3" rx="1.5" transform="rotate(90 26 28)" fill="#28A745"/>
</g>
<defs>
<clipPath id="clip0_225_62">
<rect width="64" height="64" fill="white"/>
</clipPath>
</defs>
</svg>
