<svg width="189" height="57" viewBox="0 0 189 57" fill="none" xmlns="http://www.w3.org/2000/svg">
<g clip-path="url(#clip0_182_2042)">
<path fill-rule="evenodd" clip-rule="evenodd" d="M181.997 56.4102H7.00258C3.14316 56.4102 0 53.254 0 49.4102V7.41016C0 3.5523 3.14316 0.410156 7.00258 0.410156H181.997C185.853 0.410156 189 3.5523 189 7.41016V49.4102C189 53.254 185.853 56.4102 181.997 56.4102Z" fill="white" fill-opacity="0.08"/>
<path fill-rule="evenodd" clip-rule="evenodd" d="M181.997 1.53085C185.234 1.53085 187.884 4.17375 187.884 7.41016V49.4102C187.884 52.6466 185.252 55.2895 181.997 55.2895H7.00258C3.76554 55.2895 1.1161 52.6466 1.1161 49.4102V7.41016C1.1161 4.17375 3.74815 1.53085 7.00258 1.53085H181.997ZM181.997 0.410156H7.00258C3.14316 0.410156 0 3.56627 0 7.41016V49.4102C0 53.268 3.14316 56.4102 7.00258 56.4102H181.997C185.853 56.4102 189 53.268 189 49.4102V7.41016C189 3.56627 185.853 0.410156 181.997 0.410156Z" fill="white" fill-opacity="0.15"/>
<path d="M34.1529 28.8314C34.1678 27.6629 34.4735 26.5171 35.0416 25.5008C35.6097 24.4845 36.4218 23.6306 37.4023 23.0185C36.7794 22.1153 35.9577 21.372 35.0024 20.8476C34.0471 20.3232 32.9845 20.0322 31.899 19.9978C29.5836 19.751 27.3389 21.4045 26.159 21.4045C24.9563 21.4045 23.1396 20.0223 21.1834 20.0631C19.918 20.1046 18.6849 20.4782 17.604 21.1475C16.5231 21.8168 15.6315 22.7589 15.0158 23.8821C12.3491 28.5699 14.3383 35.4594 16.8927 39.2487C18.1708 41.1041 19.6645 43.1768 21.619 43.1033C23.5315 43.0227 24.2458 41.865 26.5545 41.865C28.8417 41.865 29.5118 43.1033 31.5059 43.0565C33.5582 43.0227 34.8512 41.1928 36.0845 39.3197C37.0028 37.9976 37.7094 36.5364 38.1782 34.9902C36.9858 34.4782 35.9684 33.6212 35.2526 32.526C34.5368 31.4307 34.1543 30.1458 34.1529 28.8314Z" fill="white"/>
<path d="M30.3865 17.5055C31.5054 16.1416 32.0567 14.3886 31.9232 12.6187C30.2137 12.801 28.6345 13.6305 27.5004 14.9421C26.9459 15.5828 26.5212 16.3282 26.2506 17.1357C25.9801 17.9432 25.8689 18.7969 25.9234 19.6481C26.7785 19.657 27.6244 19.4688 28.3975 19.0977C29.1706 18.7266 29.8506 18.1822 30.3865 17.5055Z" fill="white"/>
<path d="M58.329 38.4059H51.8023L50.2349 43.1049H47.4705L53.6524 25.7197H56.5246L62.7066 43.1049H59.895L58.329 38.4059ZM52.4782 36.2375H57.6517L55.1014 28.6114H55.03L52.4782 36.2375Z" fill="white"/>
<path d="M76.0575 36.7677C76.0575 40.7066 73.9811 43.2372 70.8477 43.2372C70.054 43.2794 69.2646 43.0937 68.5699 42.7015C67.8753 42.3093 67.3034 41.7264 66.9199 41.0196H66.8606V47.2977H64.2981V30.4294H66.7785V32.5376H66.8256C67.2268 31.8341 67.8083 31.2543 68.5082 30.8597C69.2082 30.4651 70.0004 30.2706 70.8006 30.2968C73.969 30.2968 76.0575 32.8397 76.0575 36.7677ZM73.4237 36.7677C73.4237 34.2015 72.1175 32.5144 70.1246 32.5144C68.1667 32.5144 66.8498 34.237 66.8498 36.7677C66.8498 39.3216 68.1667 41.0319 70.1246 41.0319C72.1175 41.0319 73.4237 39.3571 73.4237 36.7677Z" fill="white"/>
<path d="M89.7977 36.7677C89.7977 40.7065 87.7214 43.2372 84.588 43.2372C83.7942 43.2794 83.0048 43.0937 82.3102 42.7015C81.6155 42.3093 81.0436 41.7264 80.6601 41.0196H80.6008V47.2977H78.0383V30.4294H80.5187V32.5376H80.5658C80.967 31.8341 81.5485 31.2543 82.2484 30.8597C82.9484 30.4651 83.7406 30.2706 84.5408 30.2968C87.7092 30.2968 89.7977 32.8397 89.7977 36.7677ZM87.1639 36.7677C87.1639 34.2015 85.8577 32.5143 83.8649 32.5143C81.907 32.5143 80.5901 34.237 80.5901 36.7677C80.5901 39.3216 81.907 41.0319 83.8649 41.0319C85.8577 41.0319 87.1639 39.3571 87.1639 36.7677H87.1639Z" fill="white"/>
<path d="M98.8787 38.2608C99.0686 39.9848 100.718 41.1168 102.972 41.1168C105.132 41.1168 106.686 39.9848 106.686 38.4303C106.686 37.0809 105.749 36.2729 103.53 35.7192L101.311 35.1764C98.1664 34.4053 96.7067 32.9123 96.7067 30.4897C96.7067 27.49 99.2813 25.4297 102.937 25.4297C106.555 25.4297 109.036 27.49 109.119 30.4897H106.532C106.378 28.7547 104.965 27.7074 102.901 27.7074C100.837 27.7074 99.424 28.767 99.424 30.3092C99.424 31.5383 100.326 32.2615 102.533 32.8152L104.42 33.2855C107.933 34.1291 109.393 35.5619 109.393 38.1048C109.393 41.3574 106.841 43.3945 102.782 43.3945C98.9851 43.3945 96.4212 41.4052 96.2556 38.2607L98.8787 38.2608Z" fill="white"/>
<path d="M114.923 27.4302V30.4298H117.297V32.4901H114.923V39.4778C114.923 40.5634 115.398 41.0692 116.442 41.0692C116.724 41.0643 117.005 41.0442 117.285 41.009V43.0571C116.816 43.1461 116.339 43.1864 115.861 43.1774C113.334 43.1774 112.348 42.2135 112.348 39.7553V32.4901H110.533V30.4298H112.348V27.4302H114.923Z" fill="white"/>
<path d="M118.672 36.7681C118.672 32.78 120.985 30.2739 124.592 30.2739C128.212 30.2739 130.514 32.7799 130.514 36.7681C130.514 40.7671 128.224 43.2622 124.592 43.2622C120.962 43.2622 118.672 40.7671 118.672 36.7681ZM127.904 36.7681C127.904 34.0323 126.669 32.4177 124.592 32.4177C122.516 32.4177 121.283 34.0446 121.283 36.7681C121.283 39.5147 122.516 41.1171 124.592 41.1171C126.669 41.1171 127.903 39.5147 127.903 36.7681H127.904Z" fill="white"/>
<path d="M132.627 30.4298H135.071V32.5872H135.13C135.296 31.9134 135.685 31.3179 136.231 30.9009C136.778 30.4838 137.45 30.2706 138.133 30.2971C138.429 30.2961 138.723 30.3286 139.011 30.3942V32.8278C138.638 32.7121 138.25 32.659 137.86 32.6706C137.488 32.6552 137.116 32.7219 136.772 32.8659C136.427 33.01 136.118 33.228 135.864 33.505C135.61 33.7821 135.419 34.1116 135.302 34.4709C135.186 34.8303 135.148 35.2109 135.19 35.5868V43.1049H132.627L132.627 30.4298Z" fill="white"/>
<path d="M150.826 39.3821C150.481 41.6831 148.274 43.2622 145.45 43.2622C141.819 43.2622 139.564 40.7917 139.564 36.8282C139.564 32.8524 141.831 30.2739 145.342 30.2739C148.796 30.2739 150.968 32.6829 150.968 36.5261V37.4175H142.151V37.5747C142.11 38.0412 142.168 38.5111 142.32 38.9533C142.472 39.3955 142.715 39.7998 143.032 40.1393C143.35 40.4789 143.735 40.746 144.162 40.9228C144.589 41.0996 145.049 41.1822 145.509 41.1649C146.115 41.2225 146.723 41.0801 147.242 40.7589C147.762 40.4377 148.165 39.9548 148.392 39.3821L150.826 39.3821ZM142.163 35.5991H148.405C148.428 35.1797 148.365 34.76 148.221 34.3663C148.076 33.9726 147.853 33.6134 147.566 33.3113C147.278 33.0093 146.932 32.7708 146.55 32.6109C146.167 32.451 145.756 32.3731 145.342 32.3821C144.925 32.3796 144.512 32.461 144.125 32.6216C143.739 32.7823 143.388 33.019 143.093 33.3181C142.797 33.6171 142.563 33.9727 142.403 34.3642C142.244 34.7557 142.162 35.1754 142.163 35.5991V35.5991Z" fill="white"/>
<path d="M52.1571 12.634C52.6943 12.5948 53.2334 12.6773 53.7355 12.8753C54.2375 13.0733 54.6901 13.3819 55.0604 13.779C55.4307 14.1761 55.7097 14.6517 55.8771 15.1714C56.0445 15.6912 56.0962 16.2422 56.0284 16.7848C56.0284 19.4535 54.6078 20.9876 52.1571 20.9876H49.1853V12.634H52.1571ZM50.4632 19.8062H52.0144C52.3983 19.8295 52.7824 19.7656 53.1389 19.6191C53.4954 19.4727 53.8152 19.2473 54.0752 18.9595C54.3351 18.6718 54.5285 18.3287 54.6414 17.9555C54.7542 17.5822 54.7837 17.1881 54.7277 16.8018C54.7797 16.417 54.7472 16.0253 54.6326 15.6548C54.518 15.2843 54.3241 14.9441 54.0647 14.6586C53.8054 14.3731 53.4871 14.1493 53.1327 14.0034C52.7782 13.8575 52.3963 13.793 52.0144 13.8145H50.4632V19.8062Z" fill="white"/>
<path d="M57.4719 17.8325C57.4328 17.4182 57.4795 17.0002 57.6089 16.6053C57.7383 16.2104 57.9475 15.8473 58.2232 15.5393C58.4989 15.2313 58.835 14.9853 59.2098 14.8169C59.5847 14.6485 59.99 14.5615 60.3999 14.5615C60.8098 14.5615 61.2152 14.6485 61.59 14.8169C61.9649 14.9853 62.3009 15.2313 62.5766 15.5393C62.8523 15.8473 63.0615 16.2104 63.1909 16.6053C63.3203 17.0002 63.367 17.4182 63.328 17.8325C63.3677 18.2472 63.3216 18.6657 63.1926 19.0613C63.0635 19.4568 62.8544 19.8206 62.5786 20.1291C62.3029 20.4377 61.9666 20.6843 61.5914 20.8531C61.2161 21.0218 60.8103 21.109 60.3999 21.109C59.9895 21.109 59.5837 21.0218 59.2085 20.8531C58.8333 20.6843 58.497 20.4377 58.2212 20.1291C57.9454 19.8206 57.7363 19.4568 57.6073 19.0613C57.4782 18.6657 57.4321 18.2472 57.4719 17.8325ZM62.0676 17.8325C62.0676 16.466 61.463 15.6668 60.4019 15.6668C59.3368 15.6668 58.7377 16.466 58.7377 17.8325C58.7377 19.2099 59.3369 20.0029 60.4019 20.0029C61.463 20.0029 62.0676 19.2044 62.0676 17.8325H62.0676Z" fill="white"/>
<path d="M71.1123 20.9872H69.8412L68.5579 16.3442H68.461L67.1831 20.9872H65.9241L64.2126 14.6831H65.4555L66.5678 19.4935H66.6593L67.9358 14.6831H69.1114L70.3879 19.4935H70.4849L71.5917 14.6831H72.8171L71.1123 20.9872Z" fill="white"/>
<path d="M74.2566 14.6831H75.4362V15.6845H75.5277C75.6831 15.3248 75.9451 15.0233 76.2772 14.822C76.6093 14.6207 76.995 14.5296 77.3806 14.5614C77.6827 14.5383 77.986 14.5846 78.2681 14.6967C78.5503 14.8088 78.8039 14.984 79.0103 15.2092C79.2167 15.4343 79.3705 15.7038 79.4604 15.9975C79.5503 16.2913 79.574 16.6018 79.5297 16.9061V20.9871H78.3043V17.2185C78.3043 16.2054 77.8707 15.7016 76.9645 15.7016C76.7594 15.6919 76.5546 15.7274 76.3643 15.8055C76.1739 15.8837 76.0024 16.0027 75.8616 16.1545C75.7208 16.3062 75.614 16.4871 75.5484 16.6846C75.4829 16.8822 75.4602 17.0919 75.4819 17.2992V20.9872H74.2566L74.2566 14.6831Z" fill="white"/>
<path d="M81.4822 12.2222H82.7075V20.9872H81.4822V12.2222Z" fill="white"/>
<path d="M84.4108 17.8326C84.3718 17.4183 84.4185 17.0002 84.5479 16.6053C84.6773 16.2104 84.8866 15.8473 85.1623 15.5393C85.4381 15.2314 85.7741 14.9853 86.149 14.8169C86.5239 14.6485 86.9293 14.5615 87.3392 14.5615C87.7491 14.5615 88.1545 14.6485 88.5294 14.8169C88.9042 14.9853 89.2403 15.2314 89.516 15.5393C89.7917 15.8473 90.001 16.2104 90.1305 16.6053C90.2599 17.0002 90.3066 17.4183 90.2676 17.8326C90.3073 18.2473 90.2611 18.6659 90.1321 19.0614C90.003 19.4569 89.7938 19.8207 89.518 20.1293C89.2422 20.4378 88.9059 20.6844 88.5307 20.8531C88.1554 21.0219 87.7496 21.1091 87.3392 21.1091C86.9288 21.1091 86.5229 21.0219 86.1477 20.8531C85.7725 20.6844 85.4362 20.4378 85.1604 20.1293C84.8846 19.8207 84.6754 19.4569 84.5463 19.0614C84.4172 18.6659 84.3711 18.2473 84.4108 17.8326ZM89.0065 17.8326C89.0065 16.4661 88.4019 15.667 87.3409 15.667C86.2758 15.667 85.6766 16.4661 85.6766 17.8326C85.6766 19.21 86.2758 20.003 87.3409 20.003C88.4019 20.003 89.0065 19.2045 89.0065 17.8326H89.0065Z" fill="white"/>
<path d="M91.5576 19.2045C91.5576 18.0697 92.3898 17.4155 93.8669 17.3225L95.5488 17.2241V16.68C95.5488 16.0142 95.1152 15.6382 94.2776 15.6382C93.5936 15.6382 93.1196 15.8932 92.9836 16.3389H91.7973C91.9225 15.256 92.9257 14.5615 94.3342 14.5615C95.8908 14.5615 96.7687 15.3483 96.7687 16.68V20.9873H95.5892V20.1014H95.4922C95.2954 20.4192 95.0191 20.6782 94.6915 20.8521C94.3638 21.026 93.9966 21.1085 93.6273 21.0912C93.3666 21.1187 93.1032 21.0905 92.8539 21.0083C92.6047 20.9261 92.3752 20.7918 92.1802 20.614C91.9852 20.4363 91.829 20.219 91.7218 19.9762C91.6146 19.7335 91.5586 19.4706 91.5576 19.2045ZM95.5488 18.6658V18.1388L94.0326 18.2372C93.1775 18.2953 92.7897 18.5906 92.7897 19.1464C92.7897 19.7137 93.2744 20.0439 93.941 20.0439C94.1363 20.064 94.3336 20.044 94.5212 19.985C94.7087 19.9261 94.8826 19.8295 95.0326 19.7009C95.1826 19.5723 95.3056 19.4144 95.3943 19.2366C95.483 19.0588 95.5355 18.8647 95.5488 18.6658Z" fill="white"/>
<path d="M98.3792 17.8324C98.3792 15.8405 99.3877 14.5785 100.956 14.5785C101.344 14.5604 101.73 14.6547 102.067 14.8506C102.404 15.0465 102.679 15.3357 102.86 15.6845H102.952V12.2222H104.177V20.9872H103.003V19.9912H102.906C102.711 20.3377 102.426 20.6233 102.082 20.8172C101.739 21.0111 101.349 21.1058 100.956 21.0911C99.3769 21.0912 98.3792 19.8292 98.3792 17.8324ZM99.6449 17.8324C99.6449 19.1696 100.266 19.9741 101.304 19.9741C102.337 19.9741 102.975 19.1579 102.975 17.8379C102.975 16.524 102.33 15.6962 101.304 15.6962C100.272 15.6962 99.6449 16.5063 99.6449 17.8324H99.6449Z" fill="white"/>
<path d="M109.247 17.8325C109.208 17.4182 109.255 17.0002 109.384 16.6053C109.514 16.2104 109.723 15.8473 109.999 15.5393C110.274 15.2313 110.61 14.9853 110.985 14.8169C111.36 14.6485 111.765 14.5615 112.175 14.5615C112.585 14.5615 112.991 14.6485 113.365 14.8169C113.74 14.9853 114.076 15.2313 114.352 15.5393C114.628 15.8473 114.837 16.2104 114.966 16.6053C115.096 17.0002 115.142 17.4182 115.103 17.8325C115.143 18.2472 115.097 18.6657 114.968 19.0613C114.839 19.4568 114.63 19.8206 114.354 20.1291C114.078 20.4377 113.742 20.6843 113.367 20.8531C112.992 21.0218 112.586 21.109 112.175 21.109C111.765 21.109 111.359 21.0218 110.984 20.8531C110.609 20.6843 110.272 20.4377 109.997 20.1291C109.721 19.8206 109.512 19.4568 109.383 19.0613C109.254 18.6657 109.207 18.2472 109.247 17.8325ZM113.843 17.8325C113.843 16.466 113.238 15.6668 112.177 15.6668C111.112 15.6668 110.513 16.466 110.513 17.8325C110.513 19.2099 111.112 20.0029 112.177 20.0029C113.238 20.0029 113.843 19.2044 113.843 17.8325Z" fill="white"/>
<path d="M116.747 14.6831H117.927V15.6845H118.018C118.174 15.3248 118.436 15.0233 118.768 14.822C119.1 14.6207 119.486 14.5296 119.871 14.5614C120.173 14.5383 120.477 14.5846 120.759 14.6967C121.041 14.8088 121.295 14.984 121.501 15.2092C121.707 15.4343 121.861 15.7038 121.951 15.9975C122.041 16.2913 122.065 16.6018 122.02 16.9061V20.9871H120.795V17.2185C120.795 16.2054 120.361 15.7016 119.455 15.7016C119.25 15.6919 119.045 15.7274 118.855 15.8055C118.665 15.8837 118.493 16.0027 118.352 16.1545C118.212 16.3062 118.105 16.4871 118.039 16.6846C117.974 16.8822 117.951 17.0919 117.973 17.2992V20.9872H116.747V14.6831Z" fill="white"/>
<path d="M128.944 13.1138V14.712H130.29V15.76H128.944V19.0016C128.944 19.6619 129.212 19.9511 129.822 19.9511C129.978 19.9506 130.134 19.941 130.29 19.9224V20.9587C130.069 20.9987 129.846 21.0199 129.623 21.0223C128.26 21.0223 127.718 20.5355 127.718 19.3201V15.7599H126.732V14.712H127.718V13.1138H128.944Z" fill="white"/>
<path d="M131.963 12.2222H133.178V15.6962H133.275C133.438 15.3331 133.707 15.0299 134.046 14.8278C134.385 14.6257 134.776 14.5346 135.168 14.5669C135.469 14.5503 135.769 14.6012 136.048 14.7161C136.327 14.831 136.577 15.0069 136.782 15.2314C136.986 15.4558 137.139 15.7233 137.23 16.0147C137.32 16.3061 137.346 16.6142 137.306 16.9171V20.9872H136.08V17.224C136.08 16.2171 135.618 15.7071 134.752 15.7071C134.542 15.6896 134.33 15.719 134.131 15.7933C133.933 15.8675 133.753 15.9849 133.604 16.1371C133.455 16.2894 133.341 16.4728 133.269 16.6746C133.198 16.8764 133.17 17.0916 133.189 17.3054V20.9872H131.963L131.963 12.2222Z" fill="white"/>
<path d="M144.451 19.2853C144.285 19.8614 143.924 20.3598 143.432 20.6932C142.94 21.0266 142.349 21.1738 141.761 21.1091C141.352 21.12 140.945 21.0405 140.57 20.876C140.194 20.7114 139.858 20.4658 139.585 20.1562C139.312 19.8466 139.109 19.4805 138.989 19.0831C138.87 18.6858 138.837 18.2668 138.893 17.8552C138.838 17.4423 138.872 17.0224 138.991 16.6239C139.11 16.2254 139.312 15.8575 139.584 15.5452C139.855 15.2329 140.19 14.9834 140.564 14.8137C140.939 14.6441 141.345 14.5581 141.755 14.5616C143.483 14.5616 144.525 15.76 144.525 17.7396V18.1738H140.141V18.2435C140.122 18.4748 140.15 18.7077 140.225 18.9271C140.3 19.1466 140.419 19.3478 140.574 19.5178C140.73 19.6879 140.919 19.823 141.129 19.9145C141.339 20.0061 141.566 20.0521 141.794 20.0495C142.088 20.0852 142.385 20.0316 142.648 19.8955C142.911 19.7594 143.128 19.547 143.272 19.2852L144.451 19.2853ZM140.141 17.2536H143.277C143.292 17.042 143.264 16.8295 143.194 16.6297C143.124 16.4299 143.013 16.2472 142.869 16.0934C142.725 15.9396 142.551 15.8181 142.358 15.7367C142.165 15.6552 141.958 15.6157 141.749 15.6205C141.537 15.6178 141.326 15.6582 141.13 15.7393C140.934 15.8205 140.755 15.9407 140.606 16.0929C140.456 16.2451 140.337 16.4262 140.258 16.6255C140.178 16.8249 140.138 17.0384 140.141 17.2536H140.141Z" fill="white"/>
</g>
<defs>
<clipPath id="clip0_182_2042">
<rect width="189" height="56" fill="white" transform="translate(0 0.410156)"/>
</clipPath>
</defs>
</svg>
