<svg width="189" height="57" viewBox="0 0 189 57" fill="none" xmlns="http://www.w3.org/2000/svg">
<g clip-path="url(#clip0_2574_5318)">
<path d="M173.949 0.410094H15.0593C14.4801 0.410094 13.9079 0.410094 13.3302 0.412894C12.8467 0.415694 12.367 0.423828 11.8788 0.430674C10.8183 0.441737 9.7602 0.524441 8.71383 0.678068C7.66892 0.83504 6.65674 1.13098 5.71154 1.55587C4.76748 1.98435 3.90487 2.54113 3.155 3.20599C2.4012 3.86899 1.77284 4.63532 1.2941 5.47552C0.814034 6.31405 0.481156 7.21261 0.306961 8.14017C0.131109 9.06655 0.0364821 10.0036 0.0239282 10.943C0.0092712 11.3722 0.00772337 11.8029 0 12.2322V44.5921C0.00772337 45.0268 0.0092712 45.448 0.0239282 45.8828C0.0364859 46.8221 0.131113 47.7591 0.306961 48.6855C0.480675 49.6136 0.813573 50.5126 1.2941 51.3515C1.77262 52.189 2.40107 52.9522 3.155 53.6115C3.90203 54.2793 4.7652 54.8365 5.71154 55.2617C6.65674 55.6877 7.6688 55.9854 8.71383 56.1448C9.76038 56.2972 10.8183 56.3799 11.8788 56.3923C12.367 56.4018 12.8467 56.4073 13.3302 56.4073C13.9079 56.4101 14.4801 56.4101 15.0593 56.4101H173.949C174.517 56.4101 175.094 56.4101 175.661 56.4073C176.143 56.4073 176.636 56.4018 177.117 56.3923C178.176 56.3806 179.232 56.2978 180.276 56.1448C181.325 55.9843 182.34 55.6867 183.29 55.2617C184.236 54.8362 185.098 54.2791 185.844 53.6115C186.596 52.9496 187.226 52.1869 187.711 51.3515C188.187 50.512 188.517 49.613 188.688 48.6855C188.865 47.759 188.962 46.8222 188.982 45.8828C188.988 45.448 188.988 45.0268 188.988 44.5921C189 44.0835 189 43.5777 189 43.0608V13.7607C189 13.248 189 12.7394 188.988 12.2322C188.988 11.8029 188.988 11.3722 188.982 10.9429C188.962 10.0035 188.865 9.06662 188.688 8.14011C188.517 7.21309 188.187 6.3146 187.711 5.47546C186.736 3.79137 185.19 2.42053 183.29 1.55574C182.34 1.13189 181.325 0.836031 180.276 0.677942C179.232 0.523638 178.176 0.440905 177.117 0.430478C176.636 0.423646 176.143 0.415442 175.661 0.412712C175.094 0.409912 174.517 0.409912 173.949 0.409912V0.410094Z" fill="white" fill-opacity="0.08"/>
<path d="M174.637 1.16009H173.949H15.0593C14.4799 1.16009 13.9096 1.1601 13.3342 1.16288C12.9548 1.16508 12.5785 1.17059 12.1946 1.1762C12.0934 1.17768 11.9917 1.17916 11.8893 1.1806L11.8867 1.18064C10.8603 1.19134 9.83638 1.27135 8.82398 1.41994C7.84634 1.56692 6.90113 1.84355 6.02031 2.23936C5.14262 2.63786 4.34412 3.15403 3.65257 3.76718L3.65033 3.76916L3.65033 3.76916C2.95649 4.37941 2.3818 5.08152 1.94574 5.84682L1.94498 5.84815C1.50553 6.61573 1.20244 7.43534 1.04407 8.2786L1.0438 8.28004C0.876049 9.16376 0.78583 10.0574 0.773861 10.953L0.773757 10.9608L0.773491 10.9686C0.763796 11.2525 0.760076 11.5315 0.756242 11.8191C0.754409 11.9566 0.75255 12.096 0.75 12.2389V44.5855C0.752514 44.728 0.754357 44.8659 0.756168 45.0014C0.760029 45.2901 0.763746 45.5681 0.773503 45.8575L0.773759 45.8652L0.773861 45.8728C0.785834 46.7683 0.876052 47.6619 1.0438 48.5456L1.04416 48.5475C1.20205 49.391 1.5051 50.211 1.94488 50.9787L1.94529 50.9794C2.38083 51.7416 2.95519 52.4404 3.64872 53.0469L3.65489 53.0523L3.65486 53.0524C4.34251 53.6671 5.14026 54.1828 6.01892 54.5776L6.01972 54.5779C6.90084 54.9751 7.84628 55.2536 8.82438 55.403C9.83714 55.5504 10.8611 55.6304 11.8876 55.6424L11.8935 55.6424C12.3776 55.6519 12.8524 55.6573 13.3302 55.6573H13.3339C13.9094 55.6601 14.4798 55.6601 15.0593 55.6601H173.949C174.517 55.6601 175.092 55.6601 175.658 55.6573L175.661 55.6573C176.137 55.6573 176.626 55.6519 177.103 55.6425L177.109 55.6423C178.133 55.631 179.155 55.551 180.165 55.4031C181.147 55.2525 182.096 54.974 182.982 54.5777C183.86 54.1827 184.657 53.667 185.344 53.0525L185.349 53.0485C186.041 52.4391 186.618 51.7402 187.06 50.9788C187.496 50.2111 187.795 49.3918 187.951 48.5493L187.952 48.5454C188.12 47.6606 188.213 46.7662 188.232 45.8695C188.232 45.8689 188.232 45.8682 188.232 45.8676L188.982 45.8828C188.988 45.448 188.988 45.0268 188.988 44.5921L174.637 1.16009ZM174.637 1.16009C174.978 1.16036 175.319 1.16103 175.657 1.1627L174.637 1.16009ZM1.2941 51.3515C1.77262 52.189 2.40107 52.9522 3.155 53.6115L0.306961 48.6855C0.480675 49.6136 0.813573 50.5126 1.2941 51.3515ZM188.232 10.9581L188.982 10.9429L175.657 1.1627C176.046 1.16491 176.443 1.17072 176.839 1.17652C176.928 1.17783 177.018 1.17914 177.107 1.18041L177.11 1.18044C178.134 1.19053 179.155 1.27051 180.165 1.41964C181.146 1.56771 182.096 1.84435 182.982 2.23936C184.748 3.04399 186.169 4.31099 187.06 5.84804C187.495 6.61563 187.795 7.43453 187.951 8.27666L187.952 8.28018C188.12 9.16494 188.213 10.0593 188.232 10.9559C188.232 10.9567 188.232 10.9574 188.232 10.9581Z" stroke="white" stroke-opacity="0.15" stroke-width="1.5"/>
<path d="M34.1534 28.8309C34.1682 27.6624 34.4739 26.5167 35.0421 25.5003C35.6102 24.484 36.4223 23.6301 37.4028 23.018C36.7799 22.1148 35.9582 21.3715 35.0029 20.8471C34.0476 20.3227 32.985 20.0318 31.8995 19.9973C29.5841 19.7505 27.3394 21.404 26.1595 21.404C24.9567 21.404 23.1401 20.0218 21.1839 20.0626C19.9185 20.1041 18.6853 20.4777 17.6045 21.147C16.5236 21.8163 15.632 22.7584 15.0163 23.8817C12.3496 28.5694 14.3387 35.4589 16.8932 39.2482C18.1713 41.1037 19.665 43.1763 21.6195 43.1028C23.532 43.0222 24.2463 41.8645 26.555 41.8645C28.8421 41.8645 29.5123 43.1028 31.5064 43.0561C33.5587 43.0222 34.8517 41.1923 36.085 39.3193C37.0032 37.9972 37.7099 36.5359 38.1786 34.9897C36.9863 34.4777 35.9688 33.6207 35.253 32.5255C34.5373 31.4302 34.1548 30.1453 34.1534 28.8309Z" fill="white"/>
<path d="M30.3867 17.5053C31.5057 16.1414 32.057 14.3883 31.9235 12.6184C30.2139 12.8007 28.6348 13.6303 27.5007 14.9419C26.9462 15.5826 26.5215 16.328 26.2509 17.1355C25.9803 17.943 25.8691 18.7967 25.9237 19.6478C26.7787 19.6567 27.6247 19.4686 28.3977 19.0974C29.1708 18.7263 29.8509 18.1819 30.3867 17.5053Z" fill="white"/>
<path d="M58.3312 38.4054H51.8045L50.2371 43.1044H47.4727L53.6546 25.7192H56.5268L62.7088 43.1044H59.8972L58.3312 38.4054ZM52.4804 36.237H57.6539L55.1036 28.6109H55.0322L52.4804 36.237Z" fill="white"/>
<path d="M76.0602 36.7677C76.0602 40.7066 73.9838 43.2372 70.8504 43.2372C70.0567 43.2794 69.2673 43.0937 68.5726 42.7015C67.8779 42.3093 67.3061 41.7264 66.9225 41.0196H66.8633V47.2977H64.3008V30.4294H66.7812V32.5376H66.8283C67.2295 31.8341 67.811 31.2543 68.5109 30.8597C69.2109 30.4651 70.0031 30.2706 70.8033 30.2968C73.9716 30.2968 76.0602 32.8397 76.0602 36.7677ZM73.4263 36.7677C73.4263 34.2015 72.1202 32.5144 70.1273 32.5144C68.1694 32.5144 66.8525 34.237 66.8525 36.7677C66.8525 39.3216 68.1694 41.0319 70.1273 41.0319C72.1202 41.0319 73.4263 39.3571 73.4263 36.7677Z" fill="white"/>
<path d="M89.7985 36.7677C89.7985 40.7065 87.7221 43.2372 84.5887 43.2372C83.7949 43.2794 83.0055 43.0937 82.3109 42.7015C81.6162 42.3093 81.0444 41.7264 80.6608 41.0196H80.6015V47.2977H78.0391V30.4294H80.5194V32.5376H80.5665C80.9677 31.8341 81.5492 31.2543 82.2492 30.8597C82.9491 30.4651 83.7413 30.2706 84.5415 30.2968C87.71 30.2968 89.7985 32.8397 89.7985 36.7677ZM87.1646 36.7677C87.1646 34.2015 85.8585 32.5143 83.8656 32.5143C81.9077 32.5143 80.5908 34.237 80.5908 36.7677C80.5908 39.3216 81.9077 41.0319 83.8656 41.0319C85.8585 41.0319 87.1646 39.3571 87.1646 36.7677H87.1646Z" fill="white"/>
<path d="M98.8809 38.2606C99.0708 39.9846 100.72 41.1166 102.974 41.1166C105.134 41.1166 106.688 39.9845 106.688 38.43C106.688 37.0806 105.751 36.2726 103.532 35.7189L101.313 35.1761C98.1686 34.405 96.7089 32.9121 96.7089 30.4894C96.7089 27.4898 99.2835 25.4294 102.939 25.4294C106.558 25.4294 109.038 27.4898 109.121 30.4894H106.535C106.38 28.7544 104.967 27.7072 102.903 27.7072C100.839 27.7072 99.4262 28.7668 99.4262 30.3089C99.4262 31.538 100.328 32.2613 102.535 32.8149L104.422 33.2853C107.935 34.1288 109.395 35.5617 109.395 38.1046C109.395 41.3571 106.843 43.3942 102.785 43.3942C98.9873 43.3942 96.4234 41.405 96.2578 38.2604L98.8809 38.2606Z" fill="white"/>
<path d="M114.925 27.4297V30.4293H117.299V32.4897H114.925V39.4773C114.925 40.5629 115.4 41.0688 116.444 41.0688C116.726 41.0638 117.007 41.0437 117.287 41.0086V43.0566C116.818 43.1456 116.341 43.1859 115.863 43.1769C113.336 43.1769 112.35 42.213 112.35 39.7548V32.4897H110.535V30.4293H112.35V27.4297H114.925Z" fill="white"/>
<path d="M118.676 36.7676C118.676 32.7795 120.989 30.2734 124.597 30.2734C128.216 30.2734 130.519 32.7794 130.519 36.7676C130.519 40.7666 128.228 43.2617 124.597 43.2617C120.966 43.2617 118.676 40.7666 118.676 36.7676ZM127.908 36.7676C127.908 34.0318 126.673 32.4172 124.597 32.4172C122.52 32.4172 121.287 34.0441 121.287 36.7676C121.287 39.5143 122.52 41.1166 124.597 41.1166C126.673 41.1166 127.908 39.5143 127.908 36.7676H127.908Z" fill="white"/>
<path d="M132.629 30.4293H135.073V32.5867H135.132C135.298 31.9129 135.686 31.3174 136.233 30.9004C136.78 30.4833 137.452 30.2701 138.135 30.2966C138.43 30.2956 138.725 30.3282 139.013 30.3937V32.8273C138.64 32.7116 138.251 32.6585 137.862 32.6701C137.489 32.6548 137.118 32.7214 136.774 32.8654C136.429 33.0095 136.119 33.2275 135.866 33.5045C135.612 33.7816 135.421 34.1111 135.304 34.4704C135.188 34.8298 135.149 35.2104 135.191 35.5863V43.1045H132.629L132.629 30.4293Z" fill="white"/>
<path d="M150.828 39.3816C150.483 41.6826 148.276 43.2617 145.452 43.2617C141.821 43.2617 139.566 40.7912 139.566 36.8277C139.566 32.852 141.833 30.2734 145.344 30.2734C148.798 30.2734 150.97 32.6824 150.97 36.5256V37.417H142.153V37.5742C142.112 38.0407 142.17 38.5106 142.322 38.9528C142.474 39.395 142.717 39.7993 143.034 40.1388C143.352 40.4784 143.737 40.7455 144.164 40.9223C144.591 41.0991 145.05 41.1817 145.511 41.1644C146.117 41.222 146.725 41.0797 147.244 40.7584C147.763 40.4372 148.167 39.9543 148.394 39.3816L150.828 39.3816ZM142.165 35.5986H148.406C148.429 35.1792 148.367 34.7595 148.223 34.3658C148.078 33.9721 147.855 33.6129 147.568 33.3109C147.28 33.0088 146.934 32.7703 146.552 32.6104C146.169 32.4505 145.758 32.3726 145.344 32.3816C144.927 32.3791 144.513 32.4605 144.127 32.6212C143.741 32.7818 143.39 33.0185 143.095 33.3176C142.799 33.6167 142.565 33.9722 142.405 34.3637C142.246 34.7552 142.164 35.175 142.165 35.5986V35.5986Z" fill="white"/>
<path d="M52.1554 12.6335C52.6926 12.5944 53.2317 12.6768 53.7338 12.8748C54.2358 13.0728 54.6884 13.3814 55.0587 13.7785C55.429 14.1756 55.708 14.6512 55.8754 15.171C56.0428 15.6907 56.0945 16.2418 56.0267 16.7843C56.0267 19.453 54.6061 20.9871 52.1554 20.9871H49.1836V12.6335H52.1554ZM50.4615 19.8057H52.0127C52.3966 19.829 52.7807 19.7651 53.1372 19.6186C53.4937 19.4722 53.8135 19.2468 54.0734 18.9591C54.3333 18.6713 54.5268 18.3283 54.6397 17.955C54.7525 17.5817 54.782 17.1876 54.7259 16.8013C54.7779 16.4165 54.7455 16.0249 54.6309 15.6543C54.5163 15.2838 54.3223 14.9436 54.063 14.6581C53.8037 14.3726 53.4854 14.1489 53.1309 14.0029C52.7765 13.857 52.3946 13.7925 52.0127 13.814H50.4615V19.8057Z" fill="white"/>
<path d="M57.4709 17.8322C57.4318 17.4179 57.4785 16.9999 57.6079 16.605C57.7373 16.2101 57.9466 15.8471 58.2223 15.5391C58.4979 15.2311 58.834 14.985 59.2088 14.8166C59.5837 14.6483 59.989 14.5613 60.3989 14.5613C60.8088 14.5613 61.2142 14.6483 61.589 14.8166C61.9639 14.985 62.2999 15.2311 62.5756 15.5391C62.8513 15.8471 63.0606 16.2101 63.19 16.605C63.3194 16.9999 63.366 17.4179 63.327 17.8322C63.3668 18.2469 63.3207 18.6655 63.1916 19.061C63.0626 19.4566 62.8534 19.8203 62.5777 20.1289C62.3019 20.4375 61.9656 20.6841 61.5904 20.8528C61.2152 21.0216 60.8093 21.1087 60.3989 21.1087C59.9886 21.1087 59.5827 21.0216 59.2075 20.8528C58.8323 20.6841 58.496 20.4375 58.2202 20.1289C57.9445 19.8203 57.7353 19.4566 57.6063 19.061C57.4772 18.6655 57.4311 18.2469 57.4709 17.8322ZM62.0666 17.8322C62.0666 16.4657 61.462 15.6666 60.401 15.6666C59.3358 15.6666 58.7367 16.4657 58.7367 17.8322C58.7367 19.2097 59.3359 20.0026 60.401 20.0026C61.462 20.0026 62.0666 19.2042 62.0666 17.8322H62.0666Z" fill="white"/>
<path d="M71.1106 20.987H69.8395L68.5562 16.344H68.4593L67.1814 20.987H65.9224L64.2109 14.6829H65.4538L66.566 19.4933H66.6576L67.9341 14.6829H69.1097L70.3862 19.4933H70.4831L71.59 14.6829H72.8153L71.1106 20.987Z" fill="white"/>
<path d="M74.2539 14.6828H75.4335V15.6843H75.525C75.6804 15.3246 75.9424 15.0231 76.2745 14.8217C76.6066 14.6204 76.9923 14.5293 77.3779 14.5611C77.68 14.5381 77.9833 14.5843 78.2655 14.6965C78.5476 14.8086 78.8012 14.9837 79.0076 15.2089C79.214 15.4341 79.3679 15.7035 79.4578 15.9973C79.5477 16.291 79.5713 16.6016 79.527 16.9059V20.9869H78.3016V17.2183C78.3016 16.2052 77.868 15.7014 76.9618 15.7014C76.7567 15.6917 76.5519 15.7271 76.3616 15.8053C76.1712 15.8835 75.9997 16.0025 75.8589 16.1542C75.7181 16.306 75.6113 16.4868 75.5457 16.6844C75.4802 16.882 75.4575 17.0916 75.4793 17.2989V20.9869H74.2539L74.2539 14.6828Z" fill="white"/>
<path d="M81.4805 12.2219H82.7058V20.987H81.4805V12.2219Z" fill="white"/>
<path d="M84.4083 17.8321C84.3693 17.4178 84.4161 16.9998 84.5455 16.6048C84.6749 16.2099 84.8842 15.8468 85.1599 15.5389C85.4356 15.2309 85.7717 14.9848 86.1466 14.8164C86.5214 14.648 86.9268 14.561 87.3367 14.561C87.7467 14.561 88.1521 14.648 88.5269 14.8164C88.9018 14.9848 89.2379 15.2309 89.5136 15.5389C89.7893 15.8468 89.9986 16.2099 90.128 16.6048C90.2574 16.9998 90.3041 17.4178 90.2651 17.8321C90.3049 18.2468 90.2587 18.6654 90.1296 19.0609C90.0005 19.4565 89.7914 19.8202 89.5156 20.1288C89.2398 20.4373 88.9035 20.6839 88.5282 20.8527C88.153 21.0214 87.7471 21.1086 87.3367 21.1086C86.9264 21.1086 86.5205 21.0214 86.1453 20.8527C85.77 20.6839 85.4337 20.4373 85.1579 20.1288C84.8821 19.8202 84.673 19.4565 84.5439 19.0609C84.4148 18.6654 84.3686 18.2468 84.4083 17.8321ZM89.0041 17.8321C89.0041 16.4656 88.3995 15.6665 87.3384 15.6665C86.2733 15.6665 85.6741 16.4656 85.6741 17.8321C85.6741 19.2095 86.2734 20.0025 87.3384 20.0025C88.3995 20.0025 89.0041 19.2041 89.0041 17.8321H89.0041Z" fill="white"/>
<path d="M91.5547 19.2042C91.5547 18.0695 92.3869 17.4153 93.864 17.3223L95.5458 17.2239V16.6797C95.5458 16.0139 95.1123 15.6379 94.2747 15.6379C93.5907 15.6379 93.1167 15.8929 92.9807 16.3386H91.7944C91.9196 15.2558 92.9228 14.5613 94.3313 14.5613C95.8879 14.5613 96.7658 15.3481 96.7658 16.6797V20.9871H95.5862V20.1011H95.4893C95.2925 20.4189 95.0162 20.678 94.6885 20.8519C94.3609 21.0258 93.9936 21.1083 93.6243 21.0909C93.3637 21.1184 93.1002 21.0902 92.851 21.008C92.6017 20.9259 92.3722 20.7916 92.1772 20.6138C91.9822 20.436 91.8261 20.2188 91.7189 19.976C91.6116 19.7332 91.5557 19.4703 91.5547 19.2042ZM95.5458 18.6656V18.1385L94.0296 18.237C93.1746 18.2951 92.7868 18.5904 92.7868 19.1461C92.7868 19.7135 93.2715 20.0437 93.9381 20.0437C94.1334 20.0638 94.3307 20.0437 94.5182 19.9848C94.7058 19.9259 94.8797 19.8293 95.0297 19.7007C95.1797 19.5721 95.3027 19.4142 95.3914 19.2364C95.48 19.0585 95.5326 18.8644 95.5458 18.6656Z" fill="white"/>
<path d="M98.3789 17.8322C98.3789 15.8402 99.3875 14.5783 100.956 14.5783C101.344 14.5601 101.729 14.6545 102.066 14.8504C102.404 15.0462 102.679 15.3355 102.86 15.6843H102.952V12.2219H104.177V20.987H103.003V19.991H102.906C102.711 20.3374 102.426 20.6231 102.082 20.817C101.738 21.0108 101.349 21.1056 100.956 21.0909C99.3767 21.0909 98.3789 19.829 98.3789 17.8322ZM99.6447 17.8322C99.6447 19.1693 100.265 19.9739 101.304 19.9739C102.336 19.9739 102.975 19.1577 102.975 17.8377C102.975 16.5238 102.33 15.696 101.304 15.696C100.272 15.696 99.6447 16.506 99.6447 17.8322H99.6447Z" fill="white"/>
<path d="M109.244 17.8322C109.205 17.4179 109.252 16.9999 109.381 16.605C109.511 16.2101 109.72 15.8471 109.996 15.5391C110.271 15.2311 110.607 14.985 110.982 14.8166C111.357 14.6483 111.762 14.5613 112.172 14.5613C112.582 14.5613 112.988 14.6483 113.362 14.8166C113.737 14.985 114.073 15.2311 114.349 15.5391C114.625 15.8471 114.834 16.2101 114.963 16.605C115.093 16.9999 115.139 17.4179 115.1 17.8322C115.14 18.2469 115.094 18.6655 114.965 19.061C114.836 19.4566 114.627 19.8203 114.351 20.1289C114.075 20.4375 113.739 20.6841 113.364 20.8528C112.989 21.0216 112.583 21.1087 112.172 21.1087C111.762 21.1087 111.356 21.0216 110.981 20.8528C110.606 20.6841 110.269 20.4375 109.994 20.1289C109.718 19.8203 109.509 19.4566 109.38 19.061C109.251 18.6655 109.205 18.2469 109.244 17.8322ZM113.84 17.8322C113.84 16.4657 113.235 15.6666 112.174 15.6666C111.109 15.6666 110.51 16.4657 110.51 17.8322C110.51 19.2097 111.109 20.0026 112.174 20.0026C113.235 20.0026 113.84 19.2042 113.84 17.8322Z" fill="white"/>
<path d="M116.746 14.6828H117.926V15.6843H118.017C118.173 15.3246 118.435 15.0231 118.767 14.8217C119.099 14.6204 119.485 14.5293 119.87 14.5611C120.172 14.5381 120.476 14.5843 120.758 14.6965C121.04 14.8086 121.293 14.9837 121.5 15.2089C121.706 15.4341 121.86 15.7035 121.95 15.9973C122.04 16.291 122.064 16.6016 122.019 16.9059V20.9869H120.794V17.2183C120.794 16.2052 120.36 15.7014 119.454 15.7014C119.249 15.6917 119.044 15.7271 118.854 15.8053C118.663 15.8835 118.492 16.0025 118.351 16.1542C118.21 16.306 118.103 16.4868 118.038 16.6844C117.972 16.882 117.95 17.0916 117.971 17.2989V20.9869H116.746V14.6828Z" fill="white"/>
<path d="M128.943 13.1133V14.7115H130.288V15.7595H128.943V19.0011C128.943 19.6614 129.211 19.9506 129.821 19.9506C129.977 19.9501 130.133 19.9405 130.288 19.9219V20.9582C130.068 20.9982 129.845 21.0194 129.621 21.0218C128.259 21.0218 127.716 20.535 127.716 19.3196V15.7594H126.73V14.7115H127.716V13.1133H128.943Z" fill="white"/>
<path d="M131.961 12.2219H133.176V15.696H133.272C133.435 15.3329 133.705 15.0297 134.043 14.8276C134.382 14.6255 134.774 14.5344 135.166 14.5667C135.466 14.5501 135.767 14.601 136.046 14.7159C136.324 14.8307 136.575 15.0067 136.779 15.2311C136.983 15.4556 137.136 15.7231 137.227 16.0145C137.318 16.3059 137.344 16.614 137.304 16.9169V20.987H136.077V17.2238C136.077 16.2168 135.615 15.7069 134.75 15.7069C134.539 15.6893 134.327 15.7187 134.129 15.793C133.931 15.8673 133.751 15.9846 133.602 16.1369C133.453 16.2891 133.339 16.4725 133.267 16.6743C133.195 16.8761 133.168 17.0914 133.186 17.3051V20.9869H131.961L131.961 12.2219Z" fill="white"/>
<path d="M144.448 19.2848C144.282 19.8609 143.921 20.3593 143.429 20.6927C142.937 21.0261 142.346 21.1733 141.758 21.1086C141.349 21.1196 140.942 21.04 140.567 20.8755C140.191 20.7109 139.855 20.4653 139.582 20.1557C139.309 19.8462 139.106 19.48 138.986 19.0826C138.867 18.6853 138.834 18.2663 138.89 17.8547C138.835 17.4419 138.869 17.022 138.988 16.6234C139.107 16.2249 139.31 15.857 139.581 15.5447C139.852 15.2324 140.187 14.9829 140.561 14.8133C140.936 14.6436 141.342 14.5576 141.753 14.5611C143.48 14.5611 144.522 15.7595 144.522 17.7391V18.1733H140.138V18.243C140.119 18.4743 140.147 18.7072 140.222 18.9266C140.297 19.1461 140.416 19.3473 140.571 19.5173C140.727 19.6874 140.916 19.8225 141.126 19.914C141.336 20.0056 141.563 20.0516 141.792 20.049C142.085 20.0847 142.382 20.0311 142.645 19.895C142.908 19.7589 143.125 19.5465 143.269 19.2847L144.448 19.2848ZM140.138 17.2531H143.274C143.29 17.0416 143.261 16.829 143.191 16.6292C143.121 16.4294 143.01 16.2467 142.866 16.0929C142.722 15.9391 142.548 15.8176 142.355 15.7362C142.162 15.6547 141.955 15.6152 141.746 15.62C141.534 15.6173 141.323 15.6577 141.127 15.7389C140.931 15.82 140.753 15.9402 140.603 16.0924C140.453 16.2446 140.335 16.4257 140.255 16.625C140.175 16.8244 140.135 17.038 140.138 17.2531H140.138Z" fill="white"/>
</g>
<defs>
<clipPath id="clip0_2574_5318">
<rect width="189" height="56" fill="white" transform="translate(0 0.410156)"/>
</clipPath>
</defs>
</svg>
