<svg width="189" height="57" viewBox="0 0 189 57" fill="none" xmlns="http://www.w3.org/2000/svg">
<g clip-path="url(#clip0_2574_5353)">
<path fill-rule="evenodd" clip-rule="evenodd" d="M181.997 56.4102H7.00258C3.14316 56.4102 0 53.254 0 49.4102V7.41016C0 3.5523 3.14316 0.410156 7.00258 0.410156H181.997C185.853 0.410156 189 3.5523 189 7.41016V49.4102C189 53.254 185.853 56.4102 181.997 56.4102Z" fill="white" fill-opacity="0.08"/>
<path fill-rule="evenodd" clip-rule="evenodd" d="M181.997 1.53085C185.234 1.53085 187.884 4.17375 187.884 7.41016V49.4102C187.884 52.6466 185.252 55.2895 181.997 55.2895H7.00258C3.76554 55.2895 1.1161 52.6466 1.1161 49.4102V7.41016C1.1161 4.17375 3.74815 1.53085 7.00258 1.53085H181.997ZM181.997 0.410156H7.00258C3.14316 0.410156 0 3.56627 0 7.41016V49.4102C0 53.268 3.14316 56.4102 7.00258 56.4102H181.997C185.853 56.4102 189 53.268 189 49.4102V7.41016C189 3.56627 185.853 0.410156 181.997 0.410156Z" fill="white" fill-opacity="0.15"/>
<path d="M99.566 18.9347C98.3039 18.9347 97.24 18.4913 96.3985 17.6185C95.5641 16.7701 95.0982 15.6005 95.119 14.4065C95.119 13.1322 95.5502 12.0534 96.3985 11.198C97.2365 10.3252 98.3004 9.88184 99.5625 9.88184C100.811 9.88184 101.875 10.3252 102.73 11.198C103.578 12.0813 104.01 13.1601 104.01 14.4065C103.996 15.6843 103.564 16.7631 102.73 17.615C101.892 18.4948 100.828 18.9347 99.566 18.9347ZM62.0117 18.9347C60.7774 18.9347 59.7065 18.4983 58.8303 17.636C57.9611 16.7771 57.5195 15.6913 57.5195 14.41C57.5195 13.1287 57.9611 12.0429 58.8303 11.1841C59.6891 10.3217 60.76 9.88533 62.0117 9.88533C62.6237 9.88533 63.2182 10.0075 63.7884 10.2554C64.3482 10.4963 64.8037 10.8245 65.141 11.226L65.2244 11.3272L64.2822 12.2559L64.1848 12.1407C63.6528 11.5053 62.9401 11.1946 61.9978 11.1946C61.1564 11.1946 60.4228 11.4948 59.8178 12.0883C59.2093 12.6853 58.8999 13.4674 58.8999 14.4135C58.8999 15.3596 59.2093 16.1417 59.8178 16.7387C60.4228 17.3322 61.1564 17.6325 61.9978 17.6325C62.8949 17.6325 63.6494 17.3322 64.237 16.7387C64.5846 16.3896 64.8002 15.9008 64.8767 15.2828H61.8553V13.9771H66.1736L66.191 14.0958C66.2223 14.3158 66.2536 14.5427 66.2536 14.7522C66.2536 15.9566 65.892 16.9307 65.1757 17.6499C64.3621 18.5018 63.2982 18.9347 62.0117 18.9347ZM111.944 18.7497H110.612L106.534 12.1965L106.569 13.3766V18.7462H105.237V10.0704H106.756L106.798 10.1367L110.633 16.3093L110.598 15.1327V10.0704H111.944V18.7497ZM89.5594 18.7497H88.2104V11.3761H85.8704V10.0704H91.8959V11.3761H89.5559V18.7497H89.5594ZM84.7717 18.7497H83.4261V10.0704H84.7717V18.7497ZM77.2094 18.7497H75.8638V11.3761H73.5238V10.0704H79.5493V11.3761H77.2094V18.7497ZM72.672 18.7357H67.5122V10.0704H72.672V11.3761H68.8613V13.7571H72.2999V15.0489H68.8613V17.43H72.672V18.7357ZM97.386 16.7212C97.9875 17.3252 98.7177 17.629 99.566 17.629C100.439 17.629 101.151 17.3322 101.746 16.7212C102.337 16.1277 102.636 15.3492 102.636 14.41C102.636 13.4709 102.337 12.6888 101.75 12.0988C101.148 11.4948 100.414 11.1911 99.5695 11.1911C98.6968 11.1911 97.984 11.4878 97.3929 12.0988C96.8019 12.6923 96.5028 13.4709 96.5028 14.41C96.5028 15.3492 96.7984 16.1312 97.386 16.7212Z" fill="white"/>
<path fill-rule="evenodd" clip-rule="evenodd" d="M94.9928 30.8681C91.707 30.8681 89.0437 33.3713 89.0437 36.8242C89.0437 40.2456 91.7244 42.7803 94.9928 42.7803C98.2785 42.7803 100.942 40.2596 100.942 36.8242C100.942 33.3713 98.2785 30.8681 94.9928 30.8681ZM94.9928 40.4202C93.1952 40.4202 91.6479 38.9259 91.6479 36.8102C91.6479 34.6631 93.1987 33.2003 94.9928 33.2003C96.7904 33.2003 98.3376 34.6631 98.3376 36.8102C98.3411 38.9399 96.7904 40.4202 94.9928 40.4202ZM82.0133 30.8681C78.7276 30.8681 76.0642 33.3713 76.0642 36.8242C76.0642 40.2456 78.745 42.7803 82.0133 42.7803C85.299 42.7803 87.9624 40.2596 87.9624 36.8242C87.9624 33.3713 85.2955 30.8681 82.0133 30.8681ZM82.0133 40.4202C80.2157 40.4202 78.6685 38.9259 78.6685 36.8102C78.6685 34.6631 80.2192 33.2003 82.0133 33.2003C83.8109 33.2003 85.3581 34.6631 85.3581 36.8102C85.3581 38.9399 83.8109 40.4202 82.0133 40.4202ZM66.5687 32.687V35.2077H72.5942C72.4099 36.6217 71.944 37.6656 71.2313 38.3813C70.3481 39.2681 68.9852 40.2317 66.5826 40.2317C62.8796 40.2317 59.9833 37.2292 59.9833 33.511C59.9833 29.7928 62.8796 26.7903 66.5826 26.7903C68.5818 26.7903 70.0387 27.5828 71.12 28.5953L72.9002 26.8077C71.3982 25.3623 69.3989 24.2556 66.5965 24.2556C61.5167 24.2556 57.2539 28.4102 57.2539 33.497C57.2539 38.5978 61.5132 42.7384 66.5965 42.7384C69.3398 42.7384 71.3982 41.8377 73.0254 40.1409C74.6839 38.4756 75.2089 36.1259 75.2089 34.2302C75.2089 33.6402 75.1637 33.1095 75.0698 32.6591H66.5652C66.5687 32.6556 66.5687 32.687 66.5687 32.687ZM129.741 34.6491C129.244 33.312 127.742 30.8541 124.662 30.8541C121.609 30.8541 119.071 33.2666 119.071 36.8102C119.071 40.1549 121.581 42.7663 124.957 42.7663C127.669 42.7663 129.248 41.101 129.898 40.1234L127.885 38.7688C127.217 39.7638 126.289 40.4167 124.971 40.4167C123.639 40.4167 122.708 39.8092 122.089 38.6117L130.02 35.3125C130.02 35.316 129.741 34.6491 129.741 34.6491ZM121.654 36.6392C121.591 34.3384 123.434 33.1688 124.752 33.1688C125.792 33.1688 126.657 33.682 126.953 34.4292L121.654 36.6392ZM115.211 42.4102H117.815V24.912H115.211V42.4102ZM110.935 32.1913H110.841C110.253 31.4895 109.137 30.8541 107.711 30.8541C104.753 30.8541 102.027 33.4691 102.027 36.8277C102.027 40.1723 104.739 42.7559 107.711 42.7559C109.12 42.7559 110.253 42.117 110.841 41.4012H110.935V42.2566C110.935 44.5294 109.725 45.7549 107.774 45.7549C106.178 45.7549 105.187 44.6027 104.784 43.6392L102.52 44.5888C103.171 46.1599 104.906 48.1045 107.771 48.1045C110.823 48.1045 113.41 46.2995 113.41 41.897V31.2102H110.949V32.1913C110.952 32.1913 110.935 32.1913 110.935 32.1913ZM107.944 40.4202C106.147 40.4202 104.645 38.912 104.645 36.8277C104.645 34.7259 106.147 33.2037 107.944 33.2037C109.725 33.2037 111.105 34.7434 111.105 36.8277C111.122 38.912 109.728 40.4202 107.944 40.4202ZM141.935 24.912H135.708V42.4102H138.312V35.7838H141.939C144.821 35.7838 147.655 33.6855 147.655 30.3549C147.655 27.0242 144.831 24.912 141.935 24.912ZM142.012 33.3399H138.309V27.3349H142.012C143.962 27.3349 145.064 28.9514 145.064 30.3374C145.064 31.7095 143.948 33.3399 142.012 33.3399ZM158.093 30.8367C156.201 30.8367 154.25 31.6781 153.444 33.511L155.753 34.4746C156.25 33.511 157.161 33.1828 158.124 33.1828C159.473 33.1828 160.836 33.9928 160.867 35.4382V35.6232C160.401 35.3579 159.379 34.9529 158.155 34.9529C155.662 34.9529 153.134 36.3214 153.134 38.8875C153.134 41.2372 155.179 42.7454 157.456 42.7454C159.205 42.7454 160.168 41.9529 160.77 41.0347H160.864V42.3893H163.374V35.686C163.374 32.5648 161.065 30.8367 158.093 30.8367ZM157.766 40.4202C156.914 40.4202 155.721 40.0012 155.721 38.9259C155.721 37.5713 157.209 37.0581 158.478 37.0581C159.626 37.0581 160.168 37.306 160.85 37.6481C160.662 39.2192 159.341 40.4062 157.766 40.4202ZM172.532 31.2102L169.542 38.8003H169.448L166.35 31.2102H163.548L168.197 41.8202L165.547 47.717H168.259L175.411 31.2102H172.532ZM149.091 42.4102H151.695V24.912H149.091V42.4102Z" fill="white"/>
<path fill-rule="evenodd" clip-rule="evenodd" d="M14.5464 10.9573C14.1431 11.3937 13.9102 12.0605 13.9102 12.9334V43.8905C13.9102 44.7633 14.1431 45.4301 14.5603 45.8491L14.6681 45.9433L31.9416 28.5987V28.2112L14.6542 10.863L14.5464 10.9573Z" fill="url(#paint0_linear_2574_5353)"/>
<path fill-rule="evenodd" clip-rule="evenodd" d="M37.691 34.3977L31.9297 28.6126V28.2076L37.691 22.4226L37.8162 22.4994L44.6311 26.3887C46.5816 27.4919 46.5816 29.3144 44.6311 30.4316L37.8162 34.3209L37.691 34.3977Z" fill="url(#paint1_linear_2574_5353)"/>
<path fill-rule="evenodd" clip-rule="evenodd" d="M37.8146 34.3209L31.9281 28.4102L14.5469 45.863C15.1832 46.5473 16.2506 46.6241 17.4432 45.9573L37.8146 34.3209Z" fill="url(#paint2_linear_2574_5353)"/>
<path fill-rule="evenodd" clip-rule="evenodd" d="M37.8146 22.4993L17.4432 10.8804C16.2506 10.1961 15.1797 10.2904 14.5469 10.9746L31.9281 28.4101L37.8146 22.4993Z" fill="url(#paint3_linear_2574_5353)"/>
<path opacity="0.2" fill-rule="evenodd" clip-rule="evenodd" d="M37.6913 34.1953L17.4588 45.7374C16.3288 46.3903 15.3205 46.3449 14.6703 45.7514L14.5625 45.8596L14.6703 45.9539C15.3205 46.5439 16.3288 46.5928 17.4588 45.9399L37.8304 34.321L37.6913 34.1953Z" fill="black"/>
<path opacity="0.12" fill-rule="evenodd" clip-rule="evenodd" d="M44.6292 30.2291L37.6719 34.1952L37.797 34.3209L44.6119 30.4316C45.5889 29.873 46.0687 29.1398 46.0687 28.4102C46.0096 29.0805 45.5124 29.7159 44.6292 30.2291Z" fill="black"/>
<path opacity="0.25" fill-rule="evenodd" clip-rule="evenodd" d="M17.4427 11.0831L44.629 26.5913C45.5121 27.0906 46.0094 27.7435 46.0858 28.4103C46.0858 27.6806 45.606 26.9474 44.629 26.3888L17.4427 10.8806C15.4922 9.75992 13.9102 10.6956 13.9102 12.9335V13.136C13.9102 10.8946 15.4922 9.97638 17.4427 11.0831Z" fill="white"/>
</g>
<defs>
<linearGradient id="paint0_linear_2574_5353" x1="30.3922" y1="12.5994" x2="2.70805" y2="19.9456" gradientUnits="userSpaceOnUse">
<stop stop-color="#00A0FF"/>
<stop offset="0.00657" stop-color="#00A1FF"/>
<stop offset="0.2601" stop-color="#00BEFF"/>
<stop offset="0.5122" stop-color="#00D2FF"/>
<stop offset="0.7604" stop-color="#00DFFF"/>
<stop offset="1" stop-color="#00E3FF"/>
</linearGradient>
<linearGradient id="paint1_linear_2574_5353" x1="47.1748" y1="28.4102" x2="13.438" y2="28.4102" gradientUnits="userSpaceOnUse">
<stop stop-color="#FFE000"/>
<stop offset="0.4087" stop-color="#FFBD00"/>
<stop offset="0.7754" stop-color="#FFA500"/>
<stop offset="1" stop-color="#FF9C00"/>
</linearGradient>
<linearGradient id="paint2_linear_2574_5353" x1="34.6138" y1="31.6264" x2="12.2659" y2="69.0855" gradientUnits="userSpaceOnUse">
<stop stop-color="#FF3A44"/>
<stop offset="1" stop-color="#C31162"/>
</linearGradient>
<linearGradient id="paint3_linear_2574_5353" x1="10.1701" y1="0.660361" x2="20.1404" y2="17.3902" gradientUnits="userSpaceOnUse">
<stop stop-color="#32A071"/>
<stop offset="0.0685" stop-color="#2DA771"/>
<stop offset="0.4762" stop-color="#15CF74"/>
<stop offset="0.8009" stop-color="#06E775"/>
<stop offset="1" stop-color="#00F076"/>
</linearGradient>
<clipPath id="clip0_2574_5353">
<rect width="189" height="56" fill="white" transform="translate(0 0.410156)"/>
</clipPath>
</defs>
</svg>
