<svg width="28" height="29" viewBox="0 0 28 29" fill="none" xmlns="http://www.w3.org/2000/svg">
<g clip-path="url(#clip0_2574_5245)">
<circle cx="14" cy="14.4102" r="14" fill="#34623A"/>
<path d="M17.9809 9.52133C17.9809 9.78475 17.8704 9.88975 17.6125 9.88975C17.1169 9.88975 16.6214 9.88975 16.1277 9.91001C15.634 9.93028 15.3651 10.155 15.3651 10.6708C15.354 11.2234 15.3651 11.765 15.3651 12.3287H17.4854C17.7875 12.3287 17.8906 12.4319 17.8906 12.7358C17.8906 13.4726 17.8906 14.2132 17.8906 14.9574C17.8906 15.2576 17.7948 15.3516 17.4909 15.3534H15.3467V21.3476C15.3467 21.6682 15.2472 21.7695 14.9304 21.7695H12.624C12.3459 21.7695 12.2372 21.6608 12.2372 21.3826V15.3626H10.4062C10.1188 15.3626 10.0156 15.2576 10.0156 14.9684C10.0156 14.223 10.0156 13.4782 10.0156 12.734C10.0156 12.4466 10.1243 12.3379 10.408 12.3379H12.2372V10.7261C12.2155 10.002 12.3892 9.28554 12.7401 8.65185C13.1049 8.0121 13.6894 7.52644 14.3851 7.28501C14.8366 7.12072 15.3138 7.03838 15.7943 7.04185H17.6051C17.8648 7.04185 17.9735 7.15606 17.9735 7.41027C17.9827 8.11949 17.9827 8.82133 17.9809 9.52133Z" fill="white"/>
</g>
<defs>
<clipPath id="clip0_2574_5245">
<rect width="28" height="28" fill="white" transform="translate(0 0.410156)"/>
</clipPath>
</defs>
</svg>
