<svg width="135" height="46" viewBox="0 0 135 46" fill="none" xmlns="http://www.w3.org/2000/svg">
<path d="M103.931 3.54713C101.21 4.04298 100.625 5.56867 100.625 5.56867C99.9259 6.97993 101.261 10.8323 103.969 15.3839C107.385 14.9115 110.832 14.7032 114.28 14.761C119.226 14.8627 122.087 15.4857 123.345 16.2358C123.751 16.5263 124.045 16.9478 124.177 17.4294C124.309 17.911 124.271 18.4233 124.07 18.8803C125.5 16.377 126.663 13.7307 127.541 10.9849C127.976 9.8163 127.976 8.52993 127.541 7.36136C127.187 6.48079 126.54 5.74899 125.71 5.28896C123.015 3.95398 118.692 3.4327 115.844 3.21656C114.318 3.07671 112.742 3.00042 111.114 3.00042C108.71 2.99034 106.309 3.16034 103.931 3.50899V3.54713Z" fill="url(#paint0_linear_2574_5058)"/>
<path d="M129.528 12.3834C129.733 10.9551 129.553 9.49779 129.006 8.16233C128.734 7.5094 128.346 6.91078 127.862 6.39507C127.392 5.90784 126.836 5.51133 126.222 5.22538C127.088 5.70741 127.765 6.46953 128.142 7.38677C128.598 8.61716 128.598 9.97061 128.142 11.201C127.229 14.0434 126.023 16.7832 124.544 19.3762C124.302 19.7957 118.746 29.5474 116.076 29.5474C113.406 29.5474 107.532 21.7156 106.108 19.6813C105.167 18.3336 104.303 17.0113 103.565 15.7272C100.756 10.9849 99.357 6.95449 100.082 5.47966C100.082 5.47966 100.692 3.90311 103.527 3.38184H103.438C95.5046 4.47525 91.9955 6.90364 90.7241 8.25133C89.7414 9.2766 89.1984 10.6454 89.2112 12.0656C89.3256 15.1297 91.1818 19.4016 92.0337 21.118C93.5183 23.9928 95.2183 26.7512 97.1193 29.3694C98.9924 31.9247 101.09 34.3075 103.387 36.4893C105.399 38.4418 107.636 40.1489 110.05 41.575C110.928 41.992 111.887 42.2091 112.859 42.2107C114.278 42.1696 115.634 41.6138 116.674 40.6468C118.682 38.8287 120.653 35.3451 122.026 33.0184C123.855 29.818 125.423 26.4762 126.718 23.0251C127.968 19.5754 128.896 16.0171 129.489 12.3961L129.528 12.3834Z" fill="url(#paint1_linear_2574_5058)"/>
<path d="M11.4377 41.9056H11.5013C12.588 42.1362 13.6961 42.2512 14.807 42.2489C15.8675 42.2524 16.9251 42.1373 17.9601 41.9056H18.0364V41.8293C21.6912 36.2815 24.1067 30.0108 25.1181 23.4447C25.3108 22.2621 25.4339 21.0691 25.4868 19.8721L20.4647 20.6095C19.6907 26.5367 17.8378 32.2721 14.9977 37.5319L14.8324 37.7989L14.6798 37.5319C12.5118 33.7469 10.9098 29.6647 9.92476 25.4154C9.55606 23.8134 9.22549 21.6012 9.08564 20.5968L4 19.8975C4.49802 27.7291 7.04538 35.2923 11.3869 41.8293L11.4377 41.9056Z" fill="#004E30"/>
<path d="M64.3389 32.6752C64.1609 32.5099 62.3555 31.4037 61.7961 31.0477C61.7961 30.9715 61.6944 30.9206 61.6944 30.8697C61.6944 30.8189 61.6943 30.7426 61.8215 30.6536C62.3809 30.1959 64.021 29.1788 64.11 29.0898C64.3029 28.2825 64.3842 27.4526 64.3516 26.6232C64.5253 24.8257 63.9968 23.0306 62.8768 21.6139C62.2351 21.0188 61.4761 20.5643 60.6484 20.2797C59.8208 19.995 58.9429 19.8865 58.0708 19.9611H47.1367V42.3379H58.4268C59.3111 42.4013 60.1988 42.2792 61.0331 41.9792C61.8673 41.6792 62.6296 41.2081 63.2709 40.596C64.417 39.1598 64.9758 37.3424 64.8347 35.5104C64.8423 34.5431 64.6743 33.5825 64.3389 32.6752ZM51.9426 24.5127H57.0283C57.6964 24.4325 58.3732 24.552 58.9735 24.856C59.1897 25.0086 59.4312 25.39 59.4312 26.5978C59.4312 27.8057 59.177 28.1616 58.9481 28.3524C58.3271 28.663 57.6292 28.7867 56.9393 28.7084H51.9426V24.5127ZM59.266 37.2268C58.6297 37.6016 57.8898 37.762 57.1554 37.6845H51.9426V32.8404H57.1554C57.8843 32.7475 58.6238 32.8901 59.266 33.2473C59.533 33.4507 59.7872 33.883 59.7872 35.2307C59.7872 36.5784 59.533 37.0234 59.266 37.2268Z" fill="#004E30"/>
<path d="M36.6116 42.3378C39.0181 42.3886 41.4185 42.0757 43.7315 41.4096L44.2782 41.2316L43.6298 36.7054L42.9305 36.858C42.7737 36.9094 42.6117 36.9435 42.4474 36.9597C40.8382 37.2728 39.2044 37.443 37.5652 37.4683C36.5795 37.5041 35.5931 37.4187 34.6282 37.214C34.1997 37.1221 33.799 36.9305 33.4585 36.6546C32.9672 36.1855 32.6529 35.5613 32.5685 34.8873C32.3872 33.6501 32.3191 32.3989 32.3651 31.1494C32.3466 29.9935 32.4104 28.8379 32.5558 27.6911C32.6147 27.1865 32.7609 26.6961 32.9881 26.2417C33.1395 25.9883 33.3402 25.7677 33.5782 25.593C33.8162 25.4184 34.0868 25.2931 34.3739 25.2246C35.4225 25.0042 36.4949 24.9188 37.5652 24.9703C38.807 24.9819 40.047 25.0711 41.2777 25.2373L42.5491 25.428L42.956 25.5297L43.6807 25.6823L44.3291 21.0289L43.7315 20.8891C41.4132 20.3472 39.0431 20.0573 36.6625 20.0245C35.2059 19.9783 33.7501 20.141 32.3397 20.5077C31.4475 20.7243 30.6158 21.1399 29.9068 21.7234C29.1979 22.3068 28.63 23.043 28.2458 23.8769C27.3297 26.2088 26.9307 28.7118 27.0761 31.2129C27.0761 35.4721 27.6482 38.2692 29.2629 40.1128C30.0886 41.0146 31.1569 41.6591 32.3397 41.969C33.7535 42.3174 35.2067 42.4798 36.6625 42.4522" fill="#004E30"/>
<path d="M68.4477 41.3843L67.8882 41.2445L68.4349 37.2904H68.5239L69.0707 37.3921C69.2359 37.3921 70.1513 37.5955 71.4355 37.7608C72.9928 37.9966 74.5647 38.1241 76.1397 38.1422H76.3685C77.3914 38.2164 78.4195 38.1131 79.4072 37.8371C80.2082 37.4684 80.6786 37.0615 80.6786 35.663C80.6786 34.0992 80.3989 33.794 79.9031 33.5397C78.7733 33.2531 77.6101 33.1205 76.4448 33.1456C74.3611 33.1731 72.2881 32.842 70.3166 32.1666C68.6002 31.3783 67.5195 29.6238 67.5195 26.8267V26.7123C67.5195 24.1694 68.2188 22.4403 69.7572 21.3851C71.2829 20.3298 73.4062 20.0247 76.1143 20.0247C78.6011 20.0372 81.0802 20.3013 83.5139 20.8129L84.0987 20.9401L83.463 24.856H83.374L82.84 24.7416C82.84 24.7416 81.9373 24.5763 80.704 24.3983C79.3659 24.1887 78.0151 24.0697 76.661 24.0423H75.9617C74.985 23.9833 74.006 24.1083 73.0756 24.411C72.3255 24.7543 71.944 25.1357 71.9059 26.3817C71.9059 27.793 72.2619 28.0981 72.9103 28.416C73.9975 28.6964 75.1192 28.8205 76.2414 28.7847C78.3047 28.7044 80.3651 29.0061 82.3187 29.6747C84.0351 30.4502 85.1285 32.2175 85.1285 35.129V35.1417C85.1285 37.9897 84.264 39.8714 82.5857 40.9139C80.6807 41.9068 78.5361 42.3472 76.394 42.1853C73.6769 42.1713 70.9681 41.886 68.3078 41.3335L68.4477 41.3843Z" fill="#004E30"/>
<defs>
<linearGradient id="paint0_linear_2574_5058" x1="100.455" y1="11.0017" x2="127.828" y2="10.9301" gradientUnits="userSpaceOnUse">
<stop stop-color="#004E30"/>
<stop offset="0.91" stop-color="#8CC644"/>
</linearGradient>
<linearGradient id="paint1_linear_2574_5058" x1="94.3364" y1="3.80883" x2="125.631" y2="29.9307" gradientUnits="userSpaceOnUse">
<stop offset="0.1" stop-color="#8CC644"/>
<stop offset="0.65" stop-color="#337A37"/>
<stop offset="1" stop-color="#004E30"/>
</linearGradient>
</defs>
</svg>
