<svg width="189" height="65" viewBox="0 0 189 65" fill="none" xmlns="http://www.w3.org/2000/svg">
<g clip-path="url(#clip0_2574_5235)">
<g clip-path="url(#clip1_2574_5235)">
<path d="M133.084 1.27579C129.459 1.9534 128.747 4.00316 128.747 4.00316C127.799 5.88352 129.594 11.0333 133.186 17.0979C137.737 16.4683 142.33 16.1851 146.924 16.2509C153.514 16.4034 157.325 17.2165 159.002 18.2329C159.547 18.6128 159.942 19.1714 160.118 19.8118C160.295 20.4523 160.242 21.1342 159.968 21.7395C161.876 18.4234 163.426 14.914 164.593 11.2705C165.169 9.71858 165.169 8.01141 164.593 6.45949C164.106 5.26003 163.212 4.27038 162.069 3.66436C158.477 1.8687 152.718 1.19109 148.94 0.886169C146.89 0.699827 144.79 0.615126 142.621 0.615126C139.419 0.596271 136.219 0.81711 133.05 1.27579H133.084Z" fill="white"/>
<path d="M167.149 13.0663C167.424 11.145 167.178 9.18516 166.437 7.39129C165.885 6.03049 164.957 4.85523 163.76 4.00326C163.43 3.79203 163.085 3.6052 162.727 3.44423C163.889 4.0766 164.794 5.09526 165.285 6.32406C165.901 7.96204 165.901 9.76813 165.285 11.4061C164.06 15.1927 162.448 18.8428 160.474 22.2986C160.152 22.8577 152.749 35.8508 149.192 35.8508C145.634 35.8508 137.859 25.4156 135.945 22.6883C134.691 20.9096 133.539 19.1308 132.557 17.4368C128.745 11.1859 126.933 5.83279 127.915 3.86773C127.915 3.86773 128.711 1.75021 132.489 1.05566H132.387C121.8 2.51252 117.141 5.74809 115.447 7.54375C114.13 8.90611 113.4 10.7309 113.414 12.6258C113.567 16.7253 116.057 22.4172 117.192 24.7042C119.136 28.5269 121.367 32.1966 123.866 35.6814C126.327 39.1202 129.094 42.3294 132.133 45.2695C134.808 47.8701 137.782 50.1447 140.993 52.0456C142.161 52.6093 143.44 52.9045 144.737 52.9096C146.624 52.8369 148.424 52.0988 149.819 50.8259C152.512 48.4035 155.138 43.7619 156.951 40.6618C159.391 36.3974 161.487 31.9449 163.218 27.3468C164.969 22.7189 166.284 17.9381 167.149 13.0663Z" fill="white"/>
<path d="M9.84224 52.4013C11.2916 52.6972 12.7674 52.8448 14.2467 52.8417C15.7167 52.906 17.1893 52.798 18.6342 52.5198H18.7358V52.4351C23.5996 45.0419 26.8122 36.6869 28.1546 27.9396C28.4113 26.3639 28.5753 24.7744 28.6458 23.1794L22.0222 24.1281C20.9909 32.0255 18.5221 39.6674 14.738 46.6755L14.5347 47.0312L14.3314 46.6755C11.4383 41.6344 9.30353 36.1947 7.99576 30.5315C7.48756 28.397 7.04711 25.4494 6.86077 24.0942H6.77607L0 23.1794C0.665125 33.6139 4.05909 43.6906 9.84224 52.4013Z" fill="white"/>
<path d="M80.329 40.1028C80.0918 39.8826 77.6863 38.4935 76.9409 37.9175C76.8686 37.8574 76.8205 37.7732 76.8054 37.6804C76.8336 37.5662 76.8992 37.4648 76.9918 37.3924C77.7371 36.7995 79.9224 35.4443 80.0241 35.3257C80.2898 34.2514 80.4038 33.1452 80.3629 32.0393C80.5791 29.5952 79.8313 27.1635 78.2792 25.2632C77.4227 24.4776 76.4138 23.8767 75.3151 23.4979C74.2163 23.119 73.0514 22.9703 71.8928 23.061H57.3242V52.9604H72.3671C73.5458 53.0514 74.7304 52.8916 75.8429 52.4916C76.9554 52.0916 77.9705 51.4604 78.8213 50.6396C80.3378 48.7212 81.0757 46.3018 80.888 43.8635C80.9294 42.5865 80.74 41.3126 80.329 40.1028ZM63.8123 29.2272H70.5884C71.4768 29.1182 72.3777 29.2713 73.1802 29.6677C73.4682 29.8879 73.7901 30.3961 73.807 32.0054C73.824 33.6147 73.4682 34.0891 73.1463 34.3262C72.331 34.7584 71.4027 34.9299 70.4867 34.8175H63.8123V29.2272ZM73.5868 46.1674C72.7296 46.6389 71.7457 46.8285 70.7747 46.7095H63.8123V40.3061H70.7747C71.7457 40.187 72.7296 40.3767 73.5868 40.8482C73.9256 41.1362 74.2644 41.7121 74.2644 43.5078C74.2644 45.3035 73.9256 45.8794 73.5868 46.1674Z" fill="white"/>
<path d="M43.3841 52.9605C46.5953 53.035 49.7993 52.6238 52.8876 51.7408L53.616 51.4867L52.752 45.456L51.8034 45.6762C51.5987 45.7354 51.3888 45.7751 51.1766 45.7948C49.0343 46.2262 46.8567 46.4587 44.6716 46.4894C43.3582 46.538 42.0439 46.4242 40.7584 46.1506C40.1837 46.0242 39.6451 45.7694 39.183 45.4052C38.5346 44.7777 38.1219 43.9463 38.0141 43.0505C37.7398 41.3996 37.6263 39.726 37.6753 38.0531C37.6512 36.5132 37.7361 34.9734 37.9294 33.4454C38.0167 32.763 38.2291 32.1026 38.5562 31.4973C38.7549 31.1571 39.0213 30.8613 39.3389 30.6282C39.6565 30.3951 40.0185 30.2297 40.4026 30.1421C41.8032 29.8307 43.2378 29.6998 44.6716 29.7525C46.3265 29.7607 47.979 29.8796 49.6181 30.1082L51.2274 30.3623L51.7864 30.4809L52.7351 30.7011L53.616 24.4841L52.8198 24.3316C49.7248 23.6115 46.5615 23.2253 43.3841 23.1797C41.4433 23.1181 39.5037 23.3348 37.6245 23.8234C36.4444 24.1164 35.3443 24.6681 34.4038 25.4387C33.4634 26.2092 32.706 27.1793 32.1867 28.2787C30.9678 31.3861 30.4361 34.7207 30.6282 38.0531C30.6282 43.745 31.3905 47.4719 33.5419 49.9113C34.6485 51.1014 36.07 51.9532 37.6414 52.3676C39.5238 52.8389 41.461 53.0554 43.4011 53.0113" fill="white"/>
<path d="M85.8173 51.69L85.055 51.5206L85.7834 46.2522H85.902L86.6304 46.3877C86.8507 46.3877 88.0704 46.6587 89.7813 46.8959C91.8574 47.201 93.9511 47.3707 96.0492 47.4041H96.3541C97.7087 47.4824 99.0667 47.3277 100.369 46.9467C101.436 46.4554 102.063 45.9134 102.063 44.0499C102.063 41.9663 101.69 41.5428 101.03 41.2209C99.5701 40.8438 98.064 40.6784 96.5574 40.7297C93.7738 40.7697 91.0047 40.3225 88.3753 39.4083C86.0883 38.358 84.6484 36.0203 84.6484 32.2935V32.141V32.0563C84.6484 28.7699 85.5971 26.3813 87.6299 24.9753C89.6627 23.5523 92.4917 23.1627 96.2016 23.1458C99.5144 23.1746 102.816 23.5264 106.061 24.196L106.721 24.3316L105.891 29.5661H105.773L105.027 29.4136C105.027 29.4136 103.808 29.1765 102.182 28.9393C100.392 28.6734 98.5867 28.5206 96.7776 28.4819H95.8628C94.5573 28.4058 93.2488 28.5665 92.0005 28.9562C91.0179 29.4306 90.4928 29.9218 90.442 31.582C90.442 33.4793 90.9163 33.8858 91.7972 34.2924C93.2438 34.6768 94.7399 34.8424 96.2355 34.7837C98.9787 34.6838 101.717 35.0856 104.316 35.9695C106.62 37.0198 108.06 39.3575 108.06 43.2537V43.4062V43.4909C108.06 47.3024 106.908 49.8096 104.773 51.1817C102.228 52.5026 99.366 53.0892 96.5066 52.8758C92.8914 52.8679 89.2867 52.4875 85.7495 51.7408L85.8173 51.69Z" fill="white"/>
</g>
</g>
<defs>
<clipPath id="clip0_2574_5235">
<rect width="188.239" height="64" fill="white" transform="translate(0 0.410156)"/>
</clipPath>
<clipPath id="clip1_2574_5235">
<rect width="167.25" height="64" fill="white" transform="translate(0 0.615234)"/>
</clipPath>
</defs>
</svg>
